<svg xmlns="http://www.w3.org/2000/svg" xmlns:xlink="http://www.w3.org/1999/xlink" viewBox="0 0 571.91327 162.26025">
  <defs>
    <style>
      .cls-1, .cls-5, .cls-6 {
        fill: none;
      }

      .cls-2 {
        clip-path: url(#clip-path);
      }

      .cls-3 {
        fill: #182966;
      }

      .cls-4 {
        fill: #41d6ff;
      }

      .cls-5, .cls-6 {
        stroke: #182966;
        stroke-linecap: square;
      }

      .cls-5 {
        stroke-width: 0.168px;
      }

      .cls-6 {
        stroke-width: 1.1925px;
      }
    </style>
    <clipPath id="clip-path">
      <rect class="cls-1" width="159.65198" height="158.41803"/>
    </clipPath>
  </defs>
  <g id="图层_2" data-name="图层 2">
    <g id="图层_1-2" data-name="图层 1">
      <g class="cls-2">
        <path class="cls-3" d="M87.438,114.902V9.465A44.26412,44.26412,0,0,0,70.364,44.336v70.566A26.38672,26.38672,0,0,1,44.028,141.238H43.41a26.28307,26.28307,0,0,1,0-52.566h8.333V71.597H43.41a43.41051,43.41051,0,0,0,0,86.821h.618A43.57676,43.57676,0,0,0,87.438,114.902Zm72.215-70.566A44.3406,44.3406,0,0,0,115.317,0H114.7a47.17536,47.17536,0,0,0-8.641.824V18.515a26.73359,26.73359,0,0,1,8.641-1.441h.617a27.26151,27.26151,0,0,1,0,54.523h-9.258V88.672h9.258A44.47384,44.47384,0,0,0,159.653,44.336Z"/>
        <path class="cls-4" d="M59.664,113.976A14.195,14.195,0,1,1,45.469,99.781a14.198,14.198,0,0,1,14.195,14.195"/>
        <path class="cls-4" d="M123.543,110.996a12.035,12.035,0,1,1-12.035-12.035,12.03532,12.03532,0,0,1,12.035,12.035"/>
        <path class="cls-4" d="M56.68,48.039a8.84551,8.84551,0,1,1-8.848-8.848,8.8473,8.8473,0,0,1,8.848,8.848"/>
        <path class="cls-4" d="M129.614,44.336A14.1955,14.1955,0,1,1,115.418,30.14a14.19607,14.19607,0,0,1,14.196,14.196"/>
      </g>
      <path class="cls-3" d="M200.961,13.254H186.774V56.41h14.187q9.34653,0,12.977-4.125a19.88629,19.88629,0,0,0,3.57-7.336,36.63132,36.63132,0,0,0,1.352-10.067,34.84832,34.84832,0,0,0-1.606-10.859,16.9983,16.9983,0,0,0-4.215-7.348Q209.214,13.25351,200.961,13.254ZM172.493,68.379V1.285h28.468q10.671,0,16.5,2.113a22.60306,22.60306,0,0,1,14.387,14.387,53.44444,53.44444,0,0,1,2.715,17.203,54.866,54.866,0,0,1-2.625,17.102q-2.607,8.25-8.641,12.164a23.76245,23.76245,0,0,1-8.398,3.269,82.92391,82.92391,0,0,1-13.938.856Z"/>
      <path class="cls-5" d="M200.961,13.254H186.774V56.41h14.187q9.34653,0,12.977-4.125a19.88629,19.88629,0,0,0,3.57-7.336,36.63132,36.63132,0,0,0,1.352-10.067,34.84832,34.84832,0,0,0-1.606-10.859,16.9983,16.9983,0,0,0-4.215-7.348Q209.214,13.25351,200.961,13.254ZM172.493,68.379V1.285h28.468q10.671,0,16.5,2.113a22.60306,22.60306,0,0,1,14.387,14.387,53.44444,53.44444,0,0,1,2.715,17.203,54.866,54.866,0,0,1-2.625,17.102q-2.607,8.25-8.641,12.164a23.76245,23.76245,0,0,1-8.398,3.269,82.92391,82.92391,0,0,1-13.938.856Z"/>
      <path class="cls-3" d="M255.586,50.574v5.941H299.43V68.379H241.395V50.574q-.19355-11.268,5.63995-17.207a13.993,13.993,0,0,1,5.926-3.508,40.19015,40.19015,0,0,1,10.063-.914h10.965q5.53647,0,7.847-1.305a6.80661,6.80661,0,0,0,3.614-6.242,7.30134,7.30134,0,0,0-3.31305-6.629Q279.611,13.2525,273.989,13.254h-31.59V1.285h34.605q12.873,0,17.91,4.32a15.26034,15.26034,0,0,1,4.621,6.492,23.83541,23.83541,0,0,1,1.606,8.805,24.91823,24.91823,0,0,1-2.012,10.309,14.06261,14.06261,0,0,1-5.519,6.582q-5.23353,3.123-15.703,3.121h-9.454a34.35059,34.35059,0,0,0-7.5.601,6.26231,6.26231,0,0,0-3.656,2.219Q255.674,45.339,255.586,50.574Z"/>
      <path class="cls-5" d="M255.586,50.574v5.941H299.43V68.379H241.395V50.574q-.19355-11.268,5.63995-17.207a13.993,13.993,0,0,1,5.926-3.508,40.19015,40.19015,0,0,1,10.063-.914h10.965q5.53647,0,7.847-1.305a6.80661,6.80661,0,0,0,3.614-6.242,7.30134,7.30134,0,0,0-3.31305-6.629Q279.611,13.2525,273.989,13.254h-31.59V1.285h34.605q12.873,0,17.91,4.32a15.26034,15.26034,0,0,1,4.621,6.492,23.83541,23.83541,0,0,1,1.606,8.805,24.91823,24.91823,0,0,1-2.012,10.309,14.06261,14.06261,0,0,1-5.519,6.582q-5.23353,3.123-15.703,3.121h-9.454a34.35059,34.35059,0,0,0-7.5.601,6.26231,6.26231,0,0,0-3.656,2.219Q255.674,45.339,255.586,50.574Z"/>
      <rect class="cls-3" x="311.00397" y="1.285" width="14.28101" height="67.09399"/>
      <rect class="cls-5" x="311.00397" y="1.285" width="14.28101" height="67.09399"/>
      <path class="cls-3" d="M178.493,97.929v19.02h4.726q4.5705,0,6.688-2.29706,2.10306-2.27994,2.101-7.215,0-4.9335-2.101-7.23-2.11652-2.28-6.688-2.278Zm4.906,21.45H175.91V95.527h7.489q11.18555,0,11.187,11.91Q194.586,119.37851,183.399,119.379Z"/>
      <path class="cls-6" d="M178.493,97.929v19.02h4.726q4.5705,0,6.688-2.29706,2.10306-2.27994,2.101-7.215,0-4.9335-2.101-7.23-2.11652-2.28-6.688-2.278Zm4.906,21.45H175.91V95.527h7.489q11.18555,0,11.187,11.91Q194.586,119.37851,183.399,119.379Z"/>
      <path class="cls-3" d="M208.317,98.574l-4.184,10.902H212.5Zm-8.012,20.805h-2.789L207.028,95.527h2.578l9.48,23.85205h-2.761l-2.864-7.442H203.172Z"/>
      <path class="cls-6" d="M208.317,98.574l-4.184,10.902H212.5Zm-8.012,20.805h-2.789L207.028,95.527h2.578l9.48,23.85205h-2.761l-2.864-7.442H203.172Z"/>
      <polygon class="cls-3" points="228.77 98.031 220.336 98.031 220.336 95.527 239.746 95.527 239.746 98.031 231.348 98.031 231.348 119.379 228.77 119.379 228.77 98.031"/>
      <polygon class="cls-6" points="228.77 98.031 220.336 98.031 220.336 95.527 239.746 95.527 239.746 98.031 231.348 98.031 231.348 119.379 228.77 119.379 228.77 98.031"/>
      <path class="cls-3" d="M251.766,98.574l-4.188,10.902h8.372Zm-8.012,20.805h-2.789L250.473,95.527h2.582l9.48,23.85205h-2.761l-2.864-7.442H246.621Z"/>
      <path class="cls-6" d="M251.766,98.574l-4.188,10.902h8.372Zm-8.012,20.805h-2.789L250.473,95.527h2.582l9.48,23.85205h-2.761l-2.864-7.442H246.621Z"/>
      <polygon class="cls-3" points="286.45 98.031 278.02 98.031 278.02 95.527 297.43 95.527 297.43 98.031 289.028 98.031 289.028 119.379 286.45 119.379 286.45 98.031"/>
      <polygon class="cls-6" points="286.45 98.031 278.02 98.031 278.02 95.527 297.43 95.527 297.43 98.031 289.028 98.031 289.028 119.379 286.45 119.379 286.45 98.031"/>
      <path class="cls-3" d="M304.692,99.996q-2.04008,2.35492-2.043,7.441,0,5.06845,2.043,7.442,2.03841,2.355,6.433,2.355,4.4415,0,6.481-2.355,2.02643-2.373,2.02295-7.442,0-5.085-2.02295-7.441-2.04008-2.35052-6.481-2.35205Q306.73147,97.644,304.692,99.996Zm6.433,19.668q-11.05655,0-11.054-12.227,0-12.24,11.054-12.238,11.08648,0,11.086,12.238Q322.211,119.6605,311.125,119.664Z"/>
      <path class="cls-6" d="M304.692,99.996q-2.04008,2.35492-2.043,7.441,0,5.06845,2.043,7.442,2.03841,2.355,6.433,2.355,4.4415,0,6.481-2.355,2.02643-2.373,2.02295-7.442,0-5.085-2.02295-7.441-2.04008-2.35052-6.481-2.35205Q306.73147,97.644,304.692,99.996Zm6.433,19.668q-11.05655,0-11.054-12.227,0-12.24,11.054-12.238,11.08648,0,11.086,12.238Q322.211,119.6605,311.125,119.664Z"/>
      <rect class="cls-3" x="341.94598" y="95.52698" width="2.58197" height="23.85199"/>
      <rect class="cls-6" x="341.94598" y="95.52698" width="2.58197" height="23.85199"/>
      <polygon class="cls-3" points="353.285 119.379 350.707 119.379 350.707 95.527 353.649 95.527 367.883 115.629 367.883 95.527 370.446 95.527 370.446 119.379 367.551 119.379 353.285 99.277 353.285 119.379"/>
      <polygon class="cls-6" points="353.285 119.379 350.707 119.379 350.707 95.527 353.649 95.527 367.883 115.629 367.883 95.527 370.446 95.527 370.446 119.379 367.551 119.379 353.285 99.277 353.285 119.379"/>
      <polygon class="cls-3" points="382.5 98.031 374.071 98.031 374.071 95.527 393.481 95.527 393.481 98.031 385.078 98.031 385.078 119.379 382.5 119.379 382.5 98.031"/>
      <polygon class="cls-6" points="382.5 98.031 374.071 98.031 374.071 95.527 393.481 95.527 393.481 98.031 385.078 98.031 385.078 119.379 382.5 119.379 382.5 98.031"/>
      <polygon class="cls-3" points="412.114 119.379 397.051 119.379 397.051 95.527 412.114 95.527 412.114 97.957 399.633 97.957 399.633 106.179 410.614 106.179 410.614 108.683 399.633 108.683 399.633 116.949 412.114 116.949 412.114 119.379"/>
      <polygon class="cls-6" points="412.114 119.379 397.051 119.379 397.051 95.527 412.114 95.527 412.114 97.957 399.633 97.957 399.633 106.179 410.614 106.179 410.614 108.683 399.633 108.683 399.633 116.949 412.114 116.949 412.114 119.379"/>
      <polygon class="cls-3" points="432.067 119.379 417.293 119.379 417.293 95.527 419.871 95.527 419.871 116.871 432.067 116.871 432.067 119.379"/>
      <polygon class="cls-6" points="432.067 119.379 417.293 119.379 417.293 95.527 419.871 95.527 419.871 116.871 432.067 116.871 432.067 119.379"/>
      <polygon class="cls-3" points="450.7 119.379 435.922 119.379 435.922 95.527 438.504 95.527 438.504 116.871 450.7 116.871 450.7 119.379"/>
      <polygon class="cls-6" points="450.7 119.379 435.922 119.379 435.922 95.527 438.504 95.527 438.504 116.871 450.7 116.871 450.7 119.379"/>
      <rect class="cls-3" x="454.55499" y="95.52698" width="2.578" height="23.85199"/>
      <rect class="cls-6" x="454.55499" y="95.52698" width="2.578" height="23.85199"/>
      <path class="cls-3" d="M473.442,119.664q-11.05656,0-11.05506-12.227,0-12.24,11.05506-12.238a18.91554,18.91554,0,0,1,7.511,1.512v2.492a17.74854,17.74854,0,0,0-7.226-1.531q-4.54651,0-6.649,2.355-2.109,2.373-2.113,7.41,0,5.06845,2.113,7.41,2.10453,2.35657,6.649,2.356a17.12793,17.12793,0,0,0,5.473-.871V108.894h-5.758v-2.492h8.34v11.402A19.02136,19.02136,0,0,1,473.442,119.664Z"/>
      <path class="cls-6" d="M473.442,119.664q-11.05656,0-11.05506-12.227,0-12.24,11.05506-12.238a18.91554,18.91554,0,0,1,7.511,1.512v2.492a17.74854,17.74854,0,0,0-7.226-1.531q-4.54651,0-6.649,2.355-2.109,2.373-2.113,7.41,0,5.06845,2.113,7.41,2.10453,2.35657,6.649,2.356a17.12793,17.12793,0,0,0,5.473-.871V108.894h-5.758v-2.492h8.34v11.402A19.02136,19.02136,0,0,1,473.442,119.664Z"/>
      <polygon class="cls-3" points="502.586 119.379 487.524 119.379 487.524 95.527 502.586 95.527 502.586 97.957 490.106 97.957 490.106 106.179 501.086 106.179 501.086 108.683 490.106 108.683 490.106 116.949 502.586 116.949 502.586 119.379"/>
      <polygon class="cls-6" points="502.586 119.379 487.524 119.379 487.524 95.527 502.586 95.527 502.586 97.957 490.106 97.957 490.106 106.179 501.086 106.179 501.086 108.683 490.106 108.683 490.106 116.949 502.586 116.949 502.586 119.379"/>
      <polygon class="cls-3" points="510.344 119.379 507.766 119.379 507.766 95.527 510.703 95.527 524.942 115.629 524.942 95.527 527.504 95.527 527.504 119.379 524.61 119.379 510.344 99.277 510.344 119.379"/>
      <polygon class="cls-6" points="510.344 119.379 507.766 119.379 507.766 95.527 510.703 95.527 524.942 115.629 524.942 95.527 527.504 95.527 527.504 119.379 524.61 119.379 510.344 99.277 510.344 119.379"/>
      <path class="cls-3" d="M543.922,119.664q-11.05052,0-11.055-12.227,0-12.24,11.055-12.238a19.13049,19.13049,0,0,1,7.262,1.394v2.473a17.86351,17.86351,0,0,0-6.97705-1.422q-4.54047,0-6.644,2.35205-2.115,2.35492-2.113,7.441,0,5.06845,2.113,7.442,2.103,2.355,6.644,2.355a17.82946,17.82946,0,0,0,6.97705-1.398v2.461A19.64954,19.64954,0,0,1,543.922,119.664Z"/>
      <path class="cls-6" d="M543.922,119.664q-11.05052,0-11.055-12.227,0-12.24,11.055-12.238a19.13049,19.13049,0,0,1,7.262,1.394v2.473a17.86351,17.86351,0,0,0-6.97705-1.422q-4.54047,0-6.644,2.35205-2.115,2.35492-2.113,7.441,0,5.06845,2.113,7.442,2.103,2.355,6.644,2.355a17.82946,17.82946,0,0,0,6.97705-1.398v2.461A19.64954,19.64954,0,0,1,543.922,119.664Z"/>
      <polygon class="cls-3" points="571.317 119.379 556.254 119.379 556.254 95.527 571.317 95.527 571.317 97.957 558.836 97.957 558.836 106.179 569.817 106.179 569.817 108.683 558.836 108.683 558.836 116.949 571.317 116.949 571.317 119.379"/>
      <polygon class="cls-6" points="571.317 119.379 556.254 119.379 556.254 95.527 571.317 95.527 571.317 97.957 558.836 97.957 558.836 106.179 569.817 106.179 569.817 108.683 558.836 108.683 558.836 116.949 571.317 116.949 571.317 119.379"/>
      <path class="cls-3" d="M178.493,139.957v9.375h6.042a9.23678,9.23678,0,0,0,2.989-.418,3.4628,3.4628,0,0,0,1.738-1.141,4.83285,4.83285,0,0,0,.734-1.457,6.37209,6.37209,0,0,0,.19605-1.68,6.49313,6.49313,0,0,0-.19605-1.679,4.85277,4.85277,0,0,0-.734-1.43805,3.52365,3.52365,0,0,0-1.738-1.15594,9.46112,9.46112,0,0,0-2.989-.406Zm0,21.422H175.91V137.527h8.762a9.05447,9.05447,0,0,1,6,1.77,6.39027,6.39027,0,0,1,2.086,5.16,7.68638,7.68638,0,0,1-.48,2.789,6.19112,6.19112,0,0,1-1.11005,1.953,7.58816,7.58816,0,0,1-2.883,1.902c-.347.102-.67895.188-.988.258l6.539,10.02h-3.043l-6.22595-9.618h-6.074Z"/>
      <path class="cls-6" d="M178.493,139.957v9.375h6.042a9.23678,9.23678,0,0,0,2.989-.418,3.4628,3.4628,0,0,0,1.738-1.141,4.83285,4.83285,0,0,0,.734-1.457,6.37209,6.37209,0,0,0,.19605-1.68,6.49313,6.49313,0,0,0-.19605-1.679,4.85277,4.85277,0,0,0-.734-1.43805,3.52365,3.52365,0,0,0-1.738-1.15594,9.46112,9.46112,0,0,0-2.989-.406Zm0,21.422H175.91V137.527h8.762a9.05447,9.05447,0,0,1,6,1.77,6.39027,6.39027,0,0,1,2.086,5.16,7.68638,7.68638,0,0,1-.48,2.789,6.19112,6.19112,0,0,1-1.11005,1.953,7.58816,7.58816,0,0,1-2.883,1.902c-.347.102-.67895.188-.988.258l6.539,10.02h-3.043l-6.22595-9.618h-6.074Z"/>
      <polygon class="cls-3" points="213.18 161.379 198.117 161.379 198.117 137.527 213.18 137.527 213.18 139.957 200.7 139.957 200.7 148.179 211.68 148.179 211.68 150.683 200.7 150.683 200.7 158.949 213.18 158.949 213.18 161.379"/>
      <polygon class="cls-6" points="213.18 161.379 198.117 161.379 198.117 137.527 213.18 137.527 213.18 139.957 200.7 139.957 200.7 148.179 211.68 148.179 211.68 150.683 200.7 150.683 200.7 158.949 213.18 158.949 213.18 161.379"/>
      <path class="cls-3" d="M217.43,143.859a6.32453,6.32453,0,0,1,2.008-4.711q1.998-1.95155,6.226-1.949a13.46613,13.46613,0,0,1,5.969,1.43695v2.641a11.45469,11.45469,0,0,0-5.73-1.5,7.70678,7.70678,0,0,0-4.379,1.051,3.4895,3.4895,0,0,0-1.516,3.031,2.55793,2.55793,0,0,0,.992,2.039,6.19053,6.19053,0,0,0,2.43,1.215q1.4415.387,3.164,1.004a28.34979,28.34979,0,0,1,3.164,1.32,6.11267,6.11267,0,0,1,2.43,2.219,6.53262,6.53262,0,0,1,.976,3.648,5.54105,5.54105,0,0,1-2.234,4.664,10.14181,10.14181,0,0,1-6.242,1.696,14.74891,14.74891,0,0,1-7.035-1.68v-2.793a12.02557,12.02557,0,0,0,6.855,1.89105q6.09447,0,6.09-3.778a3.85142,3.85142,0,0,0-.988-2.703,5.62558,5.62558,0,0,0-2.43-1.59q-1.4415-.50849-3.164-1.06195-1.71148-.55656-3.168-1.125a5.72062,5.72062,0,0,1-2.43-1.848A4.88881,4.88881,0,0,1,217.43,143.859Z"/>
      <path class="cls-6" d="M217.43,143.859a6.32453,6.32453,0,0,1,2.008-4.711q1.998-1.95155,6.226-1.949a13.46613,13.46613,0,0,1,5.969,1.43695v2.641a11.45469,11.45469,0,0,0-5.73-1.5,7.70678,7.70678,0,0,0-4.379,1.051,3.4895,3.4895,0,0,0-1.516,3.031,2.55793,2.55793,0,0,0,.992,2.039,6.19053,6.19053,0,0,0,2.43,1.215q1.4415.387,3.164,1.004a28.34979,28.34979,0,0,1,3.164,1.32,6.11267,6.11267,0,0,1,2.43,2.219,6.53262,6.53262,0,0,1,.976,3.648,5.54105,5.54105,0,0,1-2.234,4.664,10.14181,10.14181,0,0,1-6.242,1.696,14.74891,14.74891,0,0,1-7.035-1.68v-2.793a12.02557,12.02557,0,0,0,6.855,1.89105q6.09447,0,6.09-3.778a3.85142,3.85142,0,0,0-.988-2.703,5.62558,5.62558,0,0,0-2.43-1.59q-1.4415-.50849-3.164-1.06195-1.71148-.55656-3.168-1.125a5.72062,5.72062,0,0,1-2.43-1.848A4.88881,4.88881,0,0,1,217.43,143.859Z"/>
      <polygon class="cls-3" points="253.516 161.379 238.457 161.379 238.457 137.527 253.516 137.527 253.516 139.957 241.035 139.957 241.035 148.179 252.016 148.179 252.016 150.683 241.035 150.683 241.035 158.949 253.516 158.949 253.516 161.379"/>
      <polygon class="cls-6" points="253.516 161.379 238.457 161.379 238.457 137.527 253.516 137.527 253.516 139.957 241.035 139.957 241.035 148.179 252.016 148.179 252.016 150.683 241.035 150.683 241.035 158.949 253.516 158.949 253.516 161.379"/>
      <path class="cls-3" d="M267.141,140.574l-4.184,10.902h8.371Zm-8.008,20.805H256.34l9.512-23.852h2.578l9.48,23.852H275.153l-2.86805-7.442H261.996Z"/>
      <path class="cls-6" d="M267.141,140.574l-4.184,10.902h8.371Zm-8.008,20.805H256.34l9.512-23.852h2.578l9.48,23.852H275.153l-2.86805-7.442H261.996Z"/>
      <path class="cls-3" d="M284.414,139.957v9.375h6.043a9.19423,9.19423,0,0,0,2.98505-.418,3.45845,3.45845,0,0,0,1.742-1.141,4.92922,4.92922,0,0,0,.734-1.457,6.37212,6.37212,0,0,0,.196-1.68,6.49316,6.49316,0,0,0-.196-1.679,4.95191,4.95191,0,0,0-.734-1.43805,3.51884,3.51884,0,0,0-1.742-1.15594,9.41751,9.41751,0,0,0-2.98505-.406Zm0,21.422h-2.582V137.527h8.762a9.0689,9.0689,0,0,1,6,1.77,6.39024,6.39024,0,0,1,2.086,5.16,7.68616,7.68616,0,0,1-.48,2.789,6.19092,6.19092,0,0,1-1.11,1.953,6.39035,6.39035,0,0,1-1.488,1.215,6.56581,6.56581,0,0,1-1.395.687c-.347.102-.67895.188-.988.258l6.539,10.02h-3.043l-6.226-9.618h-6.075Z"/>
      <path class="cls-6" d="M284.414,139.957v9.375h6.043a9.19423,9.19423,0,0,0,2.98505-.418,3.45845,3.45845,0,0,0,1.742-1.141,4.92922,4.92922,0,0,0,.734-1.457,6.37212,6.37212,0,0,0,.196-1.68,6.49316,6.49316,0,0,0-.196-1.679,4.95191,4.95191,0,0,0-.734-1.43805,3.51884,3.51884,0,0,0-1.742-1.15594,9.41751,9.41751,0,0,0-2.98505-.406Zm0,21.422h-2.582V137.527h8.762a9.0689,9.0689,0,0,1,6,1.77,6.39024,6.39024,0,0,1,2.086,5.16,7.68616,7.68616,0,0,1-.48,2.789,6.19092,6.19092,0,0,1-1.11,1.953,6.39035,6.39035,0,0,1-1.488,1.215,6.56581,6.56581,0,0,1-1.395.687c-.347.102-.67895.188-.988.258l6.539,10.02h-3.043l-6.226-9.618h-6.075Z"/>
      <path class="cls-3" d="M314.164,161.664q-11.0505,0-11.054-12.227,0-12.24,11.054-12.238a19.13037,19.13037,0,0,1,7.262,1.394v2.473a17.86193,17.86193,0,0,0-6.97595-1.422q-4.542,0-6.645,2.352-2.115,2.35493-2.113,7.441,0,5.06846,2.113,7.442,2.097,2.355,6.645,2.355a17.84189,17.84189,0,0,0,6.97595-1.398v2.461A19.64124,19.64124,0,0,1,314.164,161.664Z"/>
      <path class="cls-6" d="M314.164,161.664q-11.0505,0-11.054-12.227,0-12.24,11.054-12.238a19.13037,19.13037,0,0,1,7.262,1.394v2.473a17.86193,17.86193,0,0,0-6.97595-1.422q-4.542,0-6.645,2.352-2.115,2.35493-2.113,7.441,0,5.06846,2.113,7.442,2.097,2.355,6.645,2.355a17.84189,17.84189,0,0,0,6.97595-1.398v2.461A19.64124,19.64124,0,0,1,314.164,161.664Z"/>
      <polygon class="cls-3" points="329.078 161.379 326.496 161.379 326.496 137.527 329.078 137.527 329.078 148.222 341.766 148.222 341.766 137.527 344.348 137.527 344.348 161.379 341.766 161.379 341.766 150.683 329.078 150.683 329.078 161.379"/>
      <polygon class="cls-6" points="329.078 161.379 326.496 161.379 326.496 137.527 329.078 137.527 329.078 148.222 341.766 148.222 341.766 137.527 344.348 137.527 344.348 161.379 341.766 161.379 341.766 150.683 329.078 150.683 329.078 161.379"/>
      <path class="cls-3" d="M374.957,161.664q-11.05645,0-11.05395-12.227,0-12.24,11.05395-12.238a19.14542,19.14542,0,0,1,7.262,1.394v2.473a17.86222,17.86222,0,0,0-6.976-1.422q-4.548,0-6.645,2.352-2.115,2.35493-2.117,7.441,0,5.06846,2.117,7.442,2.09692,2.355,6.645,2.355a17.84218,17.84218,0,0,0,6.976-1.398v2.461A19.64156,19.64156,0,0,1,374.957,161.664Z"/>
      <path class="cls-6" d="M374.957,161.664q-11.05645,0-11.05395-12.227,0-12.24,11.05395-12.238a19.14542,19.14542,0,0,1,7.262,1.394v2.473a17.86222,17.86222,0,0,0-6.976-1.422q-4.548,0-6.645,2.352-2.115,2.35493-2.117,7.441,0,5.06846,2.117,7.442,2.09692,2.355,6.645,2.355a17.84218,17.84218,0,0,0,6.976-1.398v2.461A19.64156,19.64156,0,0,1,374.957,161.664Z"/>
      <polygon class="cls-3" points="402.348 161.379 387.289 161.379 387.289 137.527 402.348 137.527 402.348 139.957 389.871 139.957 389.871 148.179 400.848 148.179 400.848 150.683 389.871 150.683 389.871 158.949 402.348 158.949 402.348 161.379"/>
      <polygon class="cls-6" points="402.348 161.379 387.289 161.379 387.289 137.527 402.348 137.527 402.348 139.957 389.871 139.957 389.871 148.179 400.848 148.179 400.848 150.683 389.871 150.683 389.871 158.949 402.348 158.949 402.348 161.379"/>
      <polygon class="cls-3" points="410.11 161.379 407.532 161.379 407.532 137.527 410.469 137.527 424.703 157.629 424.703 137.527 427.27 137.527 427.27 161.379 424.375 161.379 410.11 141.277 410.11 161.379"/>
      <polygon class="cls-6" points="410.11 161.379 407.532 161.379 407.532 137.527 410.469 137.527 424.703 157.629 424.703 137.527 427.27 137.527 427.27 161.379 424.375 161.379 410.11 141.277 410.11 161.379"/>
      <polygon class="cls-3" points="439.325 140.031 430.895 140.031 430.895 137.527 450.301 137.527 450.301 140.031 441.903 140.031 441.903 161.379 439.325 161.379 439.325 140.031"/>
      <polygon class="cls-6" points="439.325 140.031 430.895 140.031 430.895 137.527 450.301 137.527 450.301 140.031 441.903 140.031 441.903 161.379 439.325 161.379 439.325 140.031"/>
      <path class="cls-3" d="M456.453,139.957v9.375H462.5a9.22763,9.22763,0,0,0,2.985-.418,3.45,3.45,0,0,0,1.738-1.141,4.85227,4.85227,0,0,0,.738-1.457,6.37483,6.37483,0,0,0,.196-1.68,6.49594,6.49594,0,0,0-.196-1.679,4.87331,4.87331,0,0,0-.738-1.43805,3.51037,3.51037,0,0,0-1.738-1.15594,9.45168,9.45168,0,0,0-2.985-.406Zm0,21.422h-2.578V137.527h8.758a9.05447,9.05447,0,0,1,6,1.77,6.39027,6.39027,0,0,1,2.086,5.16,7.68616,7.68616,0,0,1-.48,2.789,6.11547,6.11547,0,0,1-1.11,1.953,6.28739,6.28739,0,0,1-1.48395,1.215,6.5672,6.5672,0,0,1-1.395.687c-.351.102-.679.188-.992.258l6.543,10.02h-3.047l-6.222-9.618h-6.079Z"/>
      <path class="cls-6" d="M456.453,139.957v9.375H462.5a9.22763,9.22763,0,0,0,2.985-.418,3.45,3.45,0,0,0,1.738-1.141,4.85227,4.85227,0,0,0,.738-1.457,6.37483,6.37483,0,0,0,.196-1.68,6.49594,6.49594,0,0,0-.196-1.679,4.87331,4.87331,0,0,0-.738-1.43805,3.51037,3.51037,0,0,0-1.738-1.15594,9.45168,9.45168,0,0,0-2.985-.406Zm0,21.422h-2.578V137.527h8.758a9.05447,9.05447,0,0,1,6,1.77,6.39027,6.39027,0,0,1,2.086,5.16,7.68616,7.68616,0,0,1-.48,2.789,6.11547,6.11547,0,0,1-1.11,1.953,6.28739,6.28739,0,0,1-1.48395,1.215,6.5672,6.5672,0,0,1-1.395.687c-.351.102-.679.188-.992.258l6.543,10.02h-3.047l-6.222-9.618h-6.079Z"/>
      <polygon class="cls-3" points="491.141 161.379 476.082 161.379 476.082 137.527 491.141 137.527 491.141 139.957 478.66 139.957 478.66 148.179 489.641 148.179 489.641 150.683 478.66 150.683 478.66 158.949 491.141 158.949 491.141 161.379"/>
      <polygon class="cls-6" points="491.141 161.379 476.082 161.379 476.082 137.527 491.141 137.527 491.141 139.957 478.66 139.957 478.66 148.179 489.641 148.179 489.641 150.683 478.66 150.683 478.66 158.949 491.141 158.949 491.141 161.379"/>
    </g>
  </g>
</svg>
