<svg xmlns="http://www.w3.org/2000/svg" xmlns:xlink="http://www.w3.org/1999/xlink" viewBox="0 0 917.46469 159.4003">
  <defs>
    <style>
      .cls-1, .cls-5, .cls-6 {
        fill: none;
      }

      .cls-2 {
        clip-path: url(#clip-path);
      }

      .cls-3 {
        fill: #182966;
      }

      .cls-4 {
        fill: #41d6ff;
      }

      .cls-5, .cls-6 {
        stroke: #182966;
        stroke-linecap: square;
      }

      .cls-5 {
        stroke-width: 0.207px;
      }

      .cls-6 {
        stroke-width: 1.1925px;
      }
    </style>
    <clipPath id="clip-path">
      <rect class="cls-1" width="159.65198" height="158.41803"/>
    </clipPath>
  </defs>
  <g id="图层_2" data-name="图层 2">
    <g id="图层_1-2" data-name="图层 1">
      <g class="cls-2">
        <path class="cls-3" d="M87.438,114.902V9.465A44.26412,44.26412,0,0,0,70.364,44.336v70.566a26.38672,26.38672,0,0,1-26.336,26.336H43.41a26.28307,26.28307,0,0,1,0-52.566h8.333V71.597H43.41a43.41051,43.41051,0,0,0,0,86.821h.618A43.57675,43.57675,0,0,0,87.438,114.902Zm72.215-70.566A44.3406,44.3406,0,0,0,115.317,0H114.7a47.17535,47.17535,0,0,0-8.641.824V18.515a26.73359,26.73359,0,0,1,8.641-1.441h.617a27.26151,27.26151,0,0,1,0,54.523h-9.258V88.672h9.258A44.47384,44.47384,0,0,0,159.653,44.336Z"/>
        <path class="cls-4" d="M59.664,113.976A14.195,14.195,0,1,1,45.469,99.781a14.198,14.198,0,0,1,14.195,14.195"/>
        <path class="cls-4" d="M123.543,110.996a12.035,12.035,0,1,1-12.035-12.035,12.03533,12.03533,0,0,1,12.035,12.035"/>
        <path class="cls-4" d="M56.68,48.039a8.8455,8.8455,0,1,1-8.848-8.848,8.8473,8.8473,0,0,1,8.848,8.848"/>
        <path class="cls-4" d="M129.614,44.336A14.1955,14.1955,0,1,1,115.418,30.14a14.19607,14.19607,0,0,1,14.196,14.196"/>
      </g>
      <path class="cls-3" d="M234.06659,41.63933c-5.46092-.65445-14.23809-1.1899-19.50482-1.1899a9.82365,9.82365,0,0,0-9.57586,10V88.6757a10.0294,10.0294,0,0,0,10,10h9.15173q12.61572,0,17.5021-5.56093a26.87637,26.87637,0,0,0,4.82494-9.90109,49.207,49.207,0,0,0,1.82512-13.57326A46.96856,46.96856,0,0,0,246.117,54.978q-2.17173-6.66327-5.69365-9.91863C236.97822,41.98826,234.06659,41.63933,234.06659,41.63933ZM195.719,114.83307a10.0294,10.0294,0,0,1-10-10V34.29312a10.0294,10.0294,0,0,1,10-10h28.41865q14.37776,0,22.25795,2.84848,14.5308,5.296,19.41386,19.41386a72.29428,72.29428,0,0,1,3.65463,23.21329,74.2426,74.2426,0,0,1-3.52191,23.06742q-3.5356,11.13668-11.68012,16.4349a31.92752,31.92752,0,0,1-11.33683,4.40924q-6.16967,1.15-18.78758,1.15276Z"/>
      <path class="cls-5" d="M234.06659,41.63933c-5.46092-.65445-14.23809-1.1899-19.50482-1.1899a9.82365,9.82365,0,0,0-9.57586,10V88.6757a10.0294,10.0294,0,0,0,10,10h9.15173q12.61572,0,17.5021-5.56093a26.87637,26.87637,0,0,0,4.82494-9.90109,49.207,49.207,0,0,0,1.82512-13.57326A46.96856,46.96856,0,0,0,246.117,54.978q-2.17173-6.66327-5.69365-9.91863C236.97822,41.98826,234.06659,41.63933,234.06659,41.63933ZM195.719,114.83307a10.0294,10.0294,0,0,1-10-10V34.29312a10.0294,10.0294,0,0,1,10-10h28.41865q14.37776,0,22.25795,2.84848,14.5308,5.296,19.41386,19.41386a72.29428,72.29428,0,0,1,3.65463,23.21329,74.2426,74.2426,0,0,1-3.52191,23.06742q-3.5356,11.13668-11.68012,16.4349a31.92752,31.92752,0,0,1-11.33683,4.40924q-6.16967,1.15-18.78758,1.15276Z"/>
      <path class="cls-3" d="M298.70117,83.02941c-.47115,4.28132-.85663,9.583-.85663,11.78161s4.5,3.9974,10,3.9974h39.17723c5.5,0,10,3.60554,10,8.01233s-4.5,8.01232-10,8.01232h-58.329a10.0294,10.0294,0,0,1-10-10V90.81363q-.26325-15.20535,7.59994-23.21768a18.83069,18.83069,0,0,1,8.01233-4.75147,21.57054,21.57054,0,0,1,3.58052-.83991c5.496-.20948,14.49274-.38087,19.99274-.38087H322.668q7.47433,0,10.59648-1.7571a9.19592,9.19592,0,0,0,4.88853-8.427q0-6.09892-4.47722-8.94574l-2.27159-1.36334c-4.80491-.37462-13.2362-.68113-18.7362-.68113H290.05946c-5.5,0-10-3.63517-10-8.07816s4.5-8.07815,10-8.07815h36.692q17.37212,0,24.15217,5.84391a20.61266,20.61266,0,0,1,6.25087,8.75271,32.02774,32.02774,0,0,1,2.1717,11.87754,33.67486,33.67486,0,0,1-2.71576,13.91987,19.03643,19.03643,0,0,1-7.46834,8.88211c-4.7043,2.81009-11.21021,3.36338-11.21021,3.36338-5.48022.466-14.464.84737-19.964.84737h-2.75064a46.62478,46.62478,0,0,0-10.11936.80615,8.47467,8.47467,0,0,0-4.95327,2.99436Z"/>
      <path class="cls-5" d="M298.70117,83.02941c-.47115,4.28132-.85663,9.583-.85663,11.78161s4.5,3.9974,10,3.9974h39.17723c5.5,0,10,3.60554,10,8.01233s-4.5,8.01232-10,8.01232h-58.329a10.0294,10.0294,0,0,1-10-10V90.81363q-.26325-15.20535,7.59994-23.21768a18.83069,18.83069,0,0,1,8.01233-4.75147,21.57054,21.57054,0,0,1,3.58052-.83991c5.496-.20948,14.49274-.38087,19.99274-.38087H322.668q7.47433,0,10.59648-1.7571a9.19592,9.19592,0,0,0,4.88853-8.427q0-6.09892-4.47722-8.94574l-2.27159-1.36334c-4.80491-.37462-13.2362-.68113-18.7362-.68113H290.05946c-5.5,0-10-3.63517-10-8.07816s4.5-8.07815,10-8.07815h36.692q17.37212,0,24.15217,5.84391a20.61266,20.61266,0,0,1,6.25087,8.75271,32.02774,32.02774,0,0,1,2.1717,11.87754,33.67486,33.67486,0,0,1-2.71576,13.91987,19.03643,19.03643,0,0,1-7.46834,8.88211c-4.7043,2.81009-11.21021,3.36338-11.21021,3.36338-5.48022.466-14.464.84737-19.964.84737h-2.75064a46.62478,46.62478,0,0,0-10.11936.80615,8.47467,8.47467,0,0,0-4.95327,2.99436Z"/>
      <ellipse class="cls-3" cx="382.25654" cy="69.5631" rx="10.79224" ry="45.63664"/>
      <ellipse class="cls-5" cx="382.25654" cy="69.5631" rx="10.79224" ry="45.63664"/>
      <path class="cls-3" d="M191.40445,137.06906a2.00588,2.00588,0,0,0-2,2v15.02a2.00588,2.00588,0,0,0,2,2h2.726q4.5705,0,6.688-2.29706,2.103-2.27847,2.101-7.215,0-4.9335-2.101-7.23-2.11647-2.28-6.688-2.278Zm4.79026,20.77948a13.90838,13.90838,0,0,1-3.88425.67053h-3.489a2.00588,2.00588,0,0,1-2-2v-19.852a2.00588,2.00588,0,0,1,2-2h5.489q11.1855,0,11.187,11.91C205.49747,154.53806,196.19471,157.84854,196.19471,157.84854Z"/>
      <path class="cls-6" d="M191.40445,137.06906a2.00588,2.00588,0,0,0-2,2v15.02a2.00588,2.00588,0,0,0,2,2h2.726q4.5705,0,6.688-2.29706,2.103-2.27847,2.101-7.215,0-4.9335-2.101-7.23-2.11647-2.28-6.688-2.278Zm4.79026,20.77948a13.90838,13.90838,0,0,1-3.88425.67053h-3.489a2.00588,2.00588,0,0,1-2-2v-19.852a2.00588,2.00588,0,0,1,2-2h5.489q11.1855,0,11.187,11.91C205.49747,154.53806,196.19471,157.84854,196.19471,157.84854Z"/>
      <path class="cls-3" d="M219.94491,139.58135c-.394-1.027-1.03893-1.027-1.43306-.00006l-2.75078,7.16756a1.28378,1.28378,0,0,0,1.2834,1.86721h4.367a1.2839,1.2839,0,0,0,1.28354-1.86727Zm-8.00946,17.07143a2.77468,2.77468,0,0,1-2.11349,1.86629c-.767,0-1.06112-.836-.65365-1.85772l8.0303-20.13657c.40746-1.02175,1.3209-1.85773,2.02985-1.85773s1.62141.83637,2.02769,1.85859l8.00262,20.13485c.40629,1.02222.11747,1.85858-.64181,1.85858a2.76808,2.76808,0,0,1-2.09883-1.86655l-1.42734-3.70891a3.14392,3.14392,0,0,0-2.71832-1.86655h-6.289a3.14535,3.14535,0,0,0-2.719,1.86629Z"/>
      <path class="cls-6" d="M219.94491,139.58135c-.394-1.027-1.03893-1.027-1.43306-.00006l-2.75078,7.16756a1.28378,1.28378,0,0,0,1.2834,1.86721h4.367a1.2839,1.2839,0,0,0,1.28354-1.86727Zm-8.00946,17.07143a2.77468,2.77468,0,0,1-2.11349,1.86629c-.767,0-1.06112-.836-.65365-1.85772l8.0303-20.13657c.40746-1.02175,1.3209-1.85773,2.02985-1.85773s1.62141.83637,2.02769,1.85859l8.00262,20.13485c.40629,1.02222.11747,1.85858-.64181,1.85858a2.76808,2.76808,0,0,1-2.09883-1.86655l-1.42734-3.70891a3.14392,3.14392,0,0,0-2.71832-1.86655h-6.289a3.14535,3.14535,0,0,0-2.719,1.86629Z"/>
      <path class="cls-3" d="M239.68146,139.17105a2.00588,2.00588,0,0,0-2-2h-4.434c-1.1,0-2-.5634-2-1.252s.9-1.252,2-1.252h15.41c1.1,0,2,.5634,2,1.252s-.9,1.252-2,1.252h-4.398a2.00588,2.00588,0,0,0-2,2v17.348c0,1.1-.58,2-1.289,2s-1.289-.9-1.289-2Z"/>
      <path class="cls-6" d="M239.68146,139.17105a2.00588,2.00588,0,0,0-2-2h-4.434c-1.1,0-2-.5634-2-1.252s.9-1.252,2-1.252h15.41c1.1,0,2,.5634,2,1.252s-.9,1.252-2,1.252h-4.398a2.00588,2.00588,0,0,0-2,2v17.348c0,1.1-.58,2-1.289,2s-1.289-.9-1.289-2Z"/>
      <path class="cls-3" d="M263.39407,139.58129c-.39414-1.027-1.03935-1.02707-1.43381-.00023l-2.75359,7.168a1.28327,1.28327,0,0,0,1.2828,1.867h4.372a1.28378,1.28378,0,0,0,1.2834-1.86721Zm-8.00962,17.07149a2.77469,2.77469,0,0,1-2.11348,1.86629c-.767,0-1.06124-.836-.65393-1.85783l8.02684-20.13635c.40732-1.02181,1.32153-1.85784,2.03158-1.85784s1.62342.83637,2.0297,1.85859l8.00262,20.13485c.40628,1.02222.11747,1.85858-.64181,1.85858a2.76809,2.76809,0,0,1-2.09884-1.86655l-1.42733-3.70891a3.14393,3.14393,0,0,0-2.71833-1.86655h-6.289a3.14532,3.14532,0,0,0-2.719,1.86629Z"/>
      <path class="cls-6" d="M263.39407,139.58129c-.39414-1.027-1.03935-1.02707-1.43381-.00023l-2.75359,7.168a1.28327,1.28327,0,0,0,1.2828,1.867h4.372a1.28378,1.28378,0,0,0,1.2834-1.86721Zm-8.00962,17.07149a2.77469,2.77469,0,0,1-2.11348,1.86629c-.767,0-1.06124-.836-.65393-1.85783l8.02684-20.13635c.40732-1.02181,1.32153-1.85784,2.03158-1.85784s1.62342.83637,2.0297,1.85859l8.00262,20.13485c.40628,1.02222.11747,1.85858-.64181,1.85858a2.76809,2.76809,0,0,1-2.09884-1.86655l-1.42733-3.70891a3.14393,3.14393,0,0,0-2.71833-1.86655h-6.289a3.14532,3.14532,0,0,0-2.719,1.86629Z"/>
      <path class="cls-3" d="M297.36145,139.17105a2.00588,2.00588,0,0,0-2-2h-4.43c-1.1,0-2-.5634-2-1.252s.9-1.252,2-1.252h15.41c1.1,0,2,.5634,2,1.252s-.9,1.252-2,1.252h-4.402a2.00588,2.00588,0,0,0-2,2v17.348c0,1.1-.58006,2-1.289,2s-1.289-.9-1.289-2Z"/>
      <path class="cls-6" d="M297.36145,139.17105a2.00588,2.00588,0,0,0-2-2h-4.43c-1.1,0-2-.5634-2-1.252s.9-1.252,2-1.252h15.41c1.1,0,2,.5634,2,1.252s-.9,1.252-2,1.252h-4.402a2.00588,2.00588,0,0,0-2,2v17.348c0,1.1-.58006,2-1.289,2s-1.289-.9-1.289-2Z"/>
      <path class="cls-3" d="M317.26406,138.02141a9.05462,9.05462,0,0,0-2.56118,2.90042,13.62817,13.62817,0,0,0-1.14242,5.65523q0,5.06844,2.043,7.442,2.03841,2.355,6.433,2.355,4.4415,0,6.481-2.355,2.02643-2.373,2.02295-7.442,0-5.085-2.02295-7.441-2.04008-2.35053-6.481-2.352A9.17106,9.17106,0,0,0,317.26406,138.02141Zm6.64944,20.09217a6.31768,6.31768,0,0,1-3.75341-.00176s-9.17764-3.38578-9.17764-11.53476q0-12.24006,11.054-12.238,11.08648,0,11.086,12.238C333.12247,154.726,323.9135,158.11358,323.9135,158.11358Z"/>
      <path class="cls-6" d="M317.26406,138.02141a9.05462,9.05462,0,0,0-2.56118,2.90042,13.62817,13.62817,0,0,0-1.14242,5.65523q0,5.06844,2.043,7.442,2.03841,2.355,6.433,2.355,4.4415,0,6.481-2.355,2.02643-2.373,2.02295-7.442,0-5.085-2.02295-7.441-2.04008-2.35053-6.481-2.352A9.17106,9.17106,0,0,0,317.26406,138.02141Zm6.64944,20.09217a6.31768,6.31768,0,0,1-3.75341-.00176s-9.17764-3.38578-9.17764-11.53476q0-12.24006,11.054-12.238,11.08648,0,11.086,12.238C333.12247,154.726,323.9135,158.11358,323.9135,158.11358Z"/>
      <path class="cls-3" d="M352.85745,136.66705c0-1.1.581-2,1.291-2s1.291.9,1.291,2v19.852c0,1.1-.58094,2-1.291,2s-1.291-.9-1.291-2Z"/>
      <path class="cls-6" d="M352.85745,136.66705c0-1.1.581-2,1.291-2s1.291.9,1.291,2v19.852c0,1.1-.58094,2-1.291,2s-1.291-.9-1.291-2Z"/>
      <path class="cls-3" d="M364.19644,156.51907c0,1.1-.58,2-1.289,2s-1.289-.9-1.289-2v-19.852c0-1.1.66195-2,1.471-2a3.87169,3.87169,0,0,1,2.62678,1.63224l11.92247,16.83755c.63567.89773,1.15577.73223,1.15577-.36777v-16.102c0-1.1.57667-2,1.28149-2s1.28149.9,1.28149,2v19.852c0,1.1-.65138,2-1.44751,2a3.8612,3.8612,0,0,1-2.605-1.631l-11.951-16.84c-.63662-.89706-1.1575-.731-1.1575.369Z"/>
      <path class="cls-6" d="M364.19644,156.51907c0,1.1-.58,2-1.289,2s-1.289-.9-1.289-2v-19.852c0-1.1.66195-2,1.471-2a3.87169,3.87169,0,0,1,2.62678,1.63224l11.92247,16.83755c.63567.89773,1.15577.73223,1.15577-.36777v-16.102c0-1.1.57667-2,1.28149-2s1.28149.9,1.28149,2v19.852c0,1.1-.65138,2-1.44751,2a3.8612,3.8612,0,0,1-2.605-1.631l-11.951-16.84c-.63662-.89706-1.1575-.731-1.1575.369Z"/>
      <path class="cls-3" d="M393.41147,139.17105a2.00588,2.00588,0,0,0-2-2h-4.429c-1.1,0-2-.5634-2-1.252s.9-1.252,2-1.252h15.41c1.1,0,2,.5634,2,1.252s-.9,1.252-2,1.252h-4.403a2.00588,2.00588,0,0,0-2,2v17.348c0,1.1-.58,2-1.289,2s-1.289-.9-1.289-2Z"/>
      <path class="cls-6" d="M393.41147,139.17105a2.00588,2.00588,0,0,0-2-2h-4.429c-1.1,0-2-.5634-2-1.252s.9-1.252,2-1.252h15.41c1.1,0,2,.5634,2,1.252s-.9,1.252-2,1.252h-4.403a2.00588,2.00588,0,0,0-2,2v17.348c0,1.1-.58,2-1.289,2s-1.289-.9-1.289-2Z"/>
      <path class="cls-3" d="M423.02548,157.30408c0,.66825-.9,1.215-2,1.215H409.96243a2.00588,2.00588,0,0,1-2-2v-19.852a2.00588,2.00588,0,0,1,2-2h11.06305c1.1,0,2,.54676,2,1.215s-.9,1.215-2,1.215h-8.481a2.00588,2.00588,0,0,0-2,2v4.222a2.00588,2.00588,0,0,0,2,2h6.981c1.1,0,2,.56339,2,1.252s-.9,1.252-2,1.252h-6.981a2.00588,2.00588,0,0,0-2,2v4.26605a2.00588,2.00588,0,0,0,2,2h8.481C422.12548,156.08908,423.02548,156.63583,423.02548,157.30408Z"/>
      <path class="cls-6" d="M423.02548,157.30408c0,.66825-.9,1.215-2,1.215H409.96243a2.00588,2.00588,0,0,1-2-2v-19.852a2.00588,2.00588,0,0,1,2-2h11.06305c1.1,0,2,.54676,2,1.215s-.9,1.215-2,1.215h-8.481a2.00588,2.00588,0,0,0-2,2v4.222a2.00588,2.00588,0,0,0,2,2h6.981c1.1,0,2,.56339,2,1.252s-.9,1.252-2,1.252h-6.981a2.00588,2.00588,0,0,0-2,2v4.26605a2.00588,2.00588,0,0,0,2,2h8.481C422.12548,156.08908,423.02548,156.63583,423.02548,157.30408Z"/>
      <path class="cls-3" d="M442.97849,157.26508c0,.68969-.9,1.254-2,1.254H430.20444a2.00588,2.00588,0,0,1-2-2v-19.852c0-1.1.58005-2,1.289-2s1.289.9,1.289,2v17.344a2.00588,2.00588,0,0,0,2,2h8.19605C442.07849,156.01108,442.97849,156.57538,442.97849,157.26508Z"/>
      <path class="cls-6" d="M442.97849,157.26508c0,.68969-.9,1.254-2,1.254H430.20444a2.00588,2.00588,0,0,1-2-2v-19.852c0-1.1.58005-2,1.289-2s1.289.9,1.289,2v17.344a2.00588,2.00588,0,0,0,2,2h8.19605C442.07849,156.01108,442.97849,156.57538,442.97849,157.26508Z"/>
      <path class="cls-3" d="M461.61148,157.26508c0,.68969-.9,1.254-2,1.254h-10.778a2.00588,2.00588,0,0,1-2-2v-19.852c0-1.1.58094-2,1.291-2s1.291.9,1.291,2v17.344a2.00588,2.00588,0,0,0,2,2h8.196C460.71148,156.01108,461.61148,156.57538,461.61148,157.26508Z"/>
      <path class="cls-6" d="M461.61148,157.26508c0,.68969-.9,1.254-2,1.254h-10.778a2.00588,2.00588,0,0,1-2-2v-19.852c0-1.1.58094-2,1.291-2s1.291.9,1.291,2v17.344a2.00588,2.00588,0,0,0,2,2h8.196C460.71148,156.01108,461.61148,156.57538,461.61148,157.26508Z"/>
      <path class="cls-3" d="M465.46646,136.66705c0-1.1.58005-2,1.289-2s1.289.9,1.289,2v19.852c0,1.1-.58,2-1.289,2s-1.289-.9-1.289-2Z"/>
      <path class="cls-6" d="M465.46646,136.66705c0-1.1.58005-2,1.289-2s1.289.9,1.289,2v19.852c0,1.1-.58,2-1.289,2s-1.289-.9-1.289-2Z"/>
      <path class="cls-3" d="M486.342,158.5896a10.15554,10.15554,0,0,1-3.86488-.47772s-9.17865-3.38584-9.17865-11.53482q0-12.24006,11.05506-12.238a22.18242,22.18242,0,0,1,5.60116.9182,2.89587,2.89587,0,0,1,1.90982,2.59379v.492a17.74855,17.74855,0,0,0-7.226-1.531q-4.54652,0-6.649,2.355-2.109,2.373-2.113,7.41,0,5.06844,2.113,7.41,2.10453,2.35656,6.649,2.356a16.63632,16.63632,0,0,0,3.53023-.39607,2.68386,2.68386,0,0,0,1.94279-2.4749V150.034a2.00588,2.00588,0,0,0-2-2h-1.758c-1.1,0-2-.5607-2-1.246s.9-1.246,2-1.246h4.34a2.00588,2.00588,0,0,1,2,2v9.402A23.44675,23.44675,0,0,1,486.342,158.5896Z"/>
      <path class="cls-6" d="M486.342,158.5896a10.15554,10.15554,0,0,1-3.86488-.47772s-9.17865-3.38584-9.17865-11.53482q0-12.24006,11.05506-12.238a22.18242,22.18242,0,0,1,5.60116.9182,2.89587,2.89587,0,0,1,1.90982,2.59379v.492a17.74855,17.74855,0,0,0-7.226-1.531q-4.54652,0-6.649,2.355-2.109,2.373-2.113,7.41,0,5.06844,2.113,7.41,2.10453,2.35656,6.649,2.356a16.63632,16.63632,0,0,0,3.53023-.39607,2.68386,2.68386,0,0,0,1.94279-2.4749V150.034a2.00588,2.00588,0,0,0-2-2h-1.758c-1.1,0-2-.5607-2-1.246s.9-1.246,2-1.246h4.34a2.00588,2.00588,0,0,1,2,2v9.402A23.44675,23.44675,0,0,1,486.342,158.5896Z"/>
      <path class="cls-3" d="M513.49747,157.30408c0,.66825-.9,1.215-2,1.215h-11.062a2.00588,2.00588,0,0,1-2-2v-19.852a2.00588,2.00588,0,0,1,2-2h11.062c1.1,0,2,.54676,2,1.215s-.9,1.215-2,1.215h-8.48a2.00588,2.00588,0,0,0-2,2v4.222a2.00588,2.00588,0,0,0,2,2h6.98c1.1,0,2,.56339,2,1.252s-.9,1.252-2,1.252h-6.98a2.00588,2.00588,0,0,0-2,2v4.26605a2.00588,2.00588,0,0,0,2,2h8.48C512.59747,156.08908,513.49747,156.63583,513.49747,157.30408Z"/>
      <path class="cls-6" d="M513.49747,157.30408c0,.66825-.9,1.215-2,1.215h-11.062a2.00588,2.00588,0,0,1-2-2v-19.852a2.00588,2.00588,0,0,1,2-2h11.062c1.1,0,2,.54676,2,1.215s-.9,1.215-2,1.215h-8.48a2.00588,2.00588,0,0,0-2,2v4.222a2.00588,2.00588,0,0,0,2,2h6.98c1.1,0,2,.56339,2,1.252s-.9,1.252-2,1.252h-6.98a2.00588,2.00588,0,0,0-2,2v4.26605a2.00588,2.00588,0,0,0,2,2h8.48C512.59747,156.08908,513.49747,156.63583,513.49747,157.30408Z"/>
      <path class="cls-3" d="M521.25546,156.51907c0,1.1-.58,2-1.289,2s-1.289-.9-1.289-2v-19.852c0-1.1.66083-2,1.46851-2a3.87077,3.87077,0,0,1,2.62454,1.63205L534.69745,153.137c.63582.89762,1.156.732,1.156-.368v-16.102c0-1.1.57644-2,1.281-2s1.281.9,1.281,2v19.852c0,1.1-.65115,2-1.447,2a3.86086,3.86086,0,0,1-2.60449-1.631l-11.951-16.84c-.63662-.89706-1.1575-.731-1.1575.369Z"/>
      <path class="cls-6" d="M521.25546,156.51907c0,1.1-.58,2-1.289,2s-1.289-.9-1.289-2v-19.852c0-1.1.66083-2,1.46851-2a3.87077,3.87077,0,0,1,2.62454,1.63205L534.69745,153.137c.63582.89762,1.156.732,1.156-.368v-16.102c0-1.1.57644-2,1.281-2s1.281.9,1.281,2v19.852c0,1.1-.65115,2-1.447,2a3.86086,3.86086,0,0,1-2.60449-1.631l-11.951-16.84c-.63662-.89706-1.1575-.731-1.1575.369Z"/>
      <path class="cls-3" d="M556.825,158.62016a10.53,10.53,0,0,1-3.86794-.50829s-9.17859-3.38583-9.17859-11.53481q0-12.24006,11.055-12.238a22.03828,22.03828,0,0,1,5.34422.82652,2.84705,2.84705,0,0,1,1.9178,2.56749v.473a17.86368,17.86368,0,0,0-6.97705-1.422q-4.54047,0-6.644,2.352-2.115,2.35491-2.113,7.441,0,5.06844,2.113,7.442,2.103,2.355,6.644,2.355a20.13268,20.13268,0,0,0,5.06537-.81025,1.39591,1.39591,0,0,1,1.91168,1.41224v.461A22.62994,22.62994,0,0,1,556.825,158.62016Z"/>
      <path class="cls-6" d="M556.825,158.62016a10.53,10.53,0,0,1-3.86794-.50829s-9.17859-3.38583-9.17859-11.53481q0-12.24006,11.055-12.238a22.03828,22.03828,0,0,1,5.34422.82652,2.84705,2.84705,0,0,1,1.9178,2.56749v.473a17.86368,17.86368,0,0,0-6.97705-1.422q-4.54047,0-6.644,2.352-2.115,2.35491-2.113,7.441,0,5.06844,2.113,7.442,2.103,2.355,6.644,2.355a20.13268,20.13268,0,0,0,5.06537-.81025,1.39591,1.39591,0,0,1,1.91168,1.41224v.461A22.62994,22.62994,0,0,1,556.825,158.62016Z"/>
      <path class="cls-3" d="M582.22849,157.30408c0,.66825-.9,1.215-2,1.215h-11.063a2.00588,2.00588,0,0,1-2-2v-19.852a2.00588,2.00588,0,0,1,2-2h11.063c1.1,0,2,.54676,2,1.215s-.9,1.215-2,1.215h-8.481a2.00588,2.00588,0,0,0-2,2v4.222a2.00588,2.00588,0,0,0,2,2h6.981c1.1,0,2,.56339,2,1.252s-.9,1.252-2,1.252h-6.981a2.00588,2.00588,0,0,0-2,2v4.26605a2.00588,2.00588,0,0,0,2,2h8.481C581.32849,156.08908,582.22849,156.63583,582.22849,157.30408Z"/>
      <path class="cls-6" d="M582.22849,157.30408c0,.66825-.9,1.215-2,1.215h-11.063a2.00588,2.00588,0,0,1-2-2v-19.852a2.00588,2.00588,0,0,1,2-2h11.063c1.1,0,2,.54676,2,1.215s-.9,1.215-2,1.215h-8.481a2.00588,2.00588,0,0,0-2,2v4.222a2.00588,2.00588,0,0,0,2,2h6.981c1.1,0,2,.56339,2,1.252s-.9,1.252-2,1.252h-6.981a2.00588,2.00588,0,0,0-2,2v4.26605a2.00588,2.00588,0,0,0,2,2h8.481C581.32849,156.08908,582.22849,156.63583,582.22849,157.30408Z"/>
      <path class="cls-3" d="M606.22049,137.09708a2.00588,2.00588,0,0,0-2,2v5.375a2.00588,2.00588,0,0,0,2,2h4.043a9.19213,9.19213,0,0,0,2.984-.418,3.45852,3.45852,0,0,0,1.742-1.141,4.86268,4.86268,0,0,0,.735-1.457,6.37537,6.37537,0,0,0,.195-1.68,6.496,6.496,0,0,0-.195-1.67895,4.88246,4.88246,0,0,0-.735-1.43805,3.5193,3.5193,0,0,0-1.742-1.156,9.417,9.417,0,0,0-2.984-.40594Zm-2,19.422c0,1.1-.581,2-1.291,2s-1.291-.9-1.291-2v-19.852a2.00588,2.00588,0,0,1,2-2h6.762a9.07275,9.07275,0,0,1,6,1.77,6.3935,6.3935,0,0,1,2.086,5.16,7.6863,7.6863,0,0,1-.481,2.789,6.17131,6.17131,0,0,1-1.109,1.953,6.37488,6.37488,0,0,1-1.489,1.215,6.49472,6.49472,0,0,1-1.394.687l-.348.102c-.352.0858-.14809.90971.45307,1.8309l4.35295,6.67022c.60116.9212.40834,1.6749-.42849,1.6749a3.69411,3.69411,0,0,1-2.60845-1.67885l-4.05311-6.26033a4.11293,4.11293,0,0,0-3.08694-1.67886h-2.074a2.00588,2.00588,0,0,0-2,2Z"/>
      <path class="cls-6" d="M606.22049,137.09708a2.00588,2.00588,0,0,0-2,2v5.375a2.00588,2.00588,0,0,0,2,2h4.043a9.19213,9.19213,0,0,0,2.984-.418,3.45852,3.45852,0,0,0,1.742-1.141,4.86268,4.86268,0,0,0,.735-1.457,6.37537,6.37537,0,0,0,.195-1.68,6.496,6.496,0,0,0-.195-1.67895,4.88246,4.88246,0,0,0-.735-1.43805,3.5193,3.5193,0,0,0-1.742-1.156,9.417,9.417,0,0,0-2.984-.40594Zm-2,19.422c0,1.1-.581,2-1.291,2s-1.291-.9-1.291-2v-19.852a2.00588,2.00588,0,0,1,2-2h6.762a9.07275,9.07275,0,0,1,6,1.77,6.3935,6.3935,0,0,1,2.086,5.16,7.6863,7.6863,0,0,1-.481,2.789,6.17131,6.17131,0,0,1-1.109,1.953,6.37488,6.37488,0,0,1-1.489,1.215,6.49472,6.49472,0,0,1-1.394.687l-.348.102c-.352.0858-.14809.90971.45307,1.8309l4.35295,6.67022c.60116.9212.40834,1.6749-.42849,1.6749a3.69411,3.69411,0,0,1-2.60845-1.67885l-4.05311-6.26033a4.11293,4.11293,0,0,0-3.08694-1.67886h-2.074a2.00588,2.00588,0,0,0-2,2Z"/>
      <path class="cls-3" d="M638.90744,157.30408c0,.66825-.9,1.215-2,1.215H625.84549a2.00588,2.00588,0,0,1-2-2v-19.852a2.00588,2.00588,0,0,1,2-2h11.06195c1.1,0,2,.54676,2,1.215s-.9,1.215-2,1.215h-8.48a2.00588,2.00588,0,0,0-2,2v4.222a2.00588,2.00588,0,0,0,2,2h6.98c1.1,0,2,.56339,2,1.252s-.9,1.252-2,1.252h-6.98a2.00588,2.00588,0,0,0-2,2v4.26605a2.00588,2.00588,0,0,0,2,2h8.48C638.00744,156.08908,638.90744,156.63583,638.90744,157.30408Z"/>
      <path class="cls-6" d="M638.90744,157.30408c0,.66825-.9,1.215-2,1.215H625.84549a2.00588,2.00588,0,0,1-2-2v-19.852a2.00588,2.00588,0,0,1,2-2h11.06195c1.1,0,2,.54676,2,1.215s-.9,1.215-2,1.215h-8.48a2.00588,2.00588,0,0,0-2,2v4.222a2.00588,2.00588,0,0,0,2,2h6.98c1.1,0,2,.56339,2,1.252s-.9,1.252-2,1.252h-6.98a2.00588,2.00588,0,0,0-2,2v4.26605a2.00588,2.00588,0,0,0,2,2h8.48C638.00744,156.08908,638.90744,156.63583,638.90744,157.30408Z"/>
      <path class="cls-3" d="M643.44349,142.97849a14.11946,14.11946,0,0,1,.09845-3.94213,5.79783,5.79783,0,0,1,1.6235-2.7483q1.998-1.9515,6.227-1.949a13.8271,13.8271,0,0,1,4.0895.75326,3.07205,3.07205,0,0,1,1.87949,2.68375v.641a11.45847,11.45847,0,0,0-5.731-1.5,7.71127,7.71127,0,0,0-4.379,1.051,3.47947,3.47947,0,0,0-1.515,3.031,2.55793,2.55793,0,0,0,.992,2.039,6.15758,6.15758,0,0,0,2.42895,1.215c.957.25806,2.016.59406,3.164,1.004a28.36856,28.36856,0,0,1,3.165,1.32,6.117,6.117,0,0,1,2.429,2.219,6.52468,6.52468,0,0,1,.977,3.648,5.54227,5.54227,0,0,1-2.23505,4.665,10.14822,10.14822,0,0,1-6.242,1.695,16.7807,16.7807,0,0,1-5.16414-.97291,3.12031,3.12031,0,0,1-1.87084-2.70709v-.793a12.029,12.029,0,0,0,6.856,1.89106q6.09293,0,6.089-3.778a3.85136,3.85136,0,0,0-.988-2.703,5.64316,5.64316,0,0,0-2.43-1.59q-1.4415-.50849-3.168-1.06195-1.704-.55654-3.164-1.125a5.69389,5.69389,0,0,1-2.429-1.848A3.25772,3.25772,0,0,1,643.44349,142.97849Z"/>
      <path class="cls-6" d="M643.44349,142.97849a14.11946,14.11946,0,0,1,.09845-3.94213,5.79783,5.79783,0,0,1,1.6235-2.7483q1.998-1.9515,6.227-1.949a13.8271,13.8271,0,0,1,4.0895.75326,3.07205,3.07205,0,0,1,1.87949,2.68375v.641a11.45847,11.45847,0,0,0-5.731-1.5,7.71127,7.71127,0,0,0-4.379,1.051,3.47947,3.47947,0,0,0-1.515,3.031,2.55793,2.55793,0,0,0,.992,2.039,6.15758,6.15758,0,0,0,2.42895,1.215c.957.25806,2.016.59406,3.164,1.004a28.36856,28.36856,0,0,1,3.165,1.32,6.117,6.117,0,0,1,2.429,2.219,6.52468,6.52468,0,0,1,.977,3.648,5.54227,5.54227,0,0,1-2.23505,4.665,10.14822,10.14822,0,0,1-6.242,1.695,16.7807,16.7807,0,0,1-5.16414-.97291,3.12031,3.12031,0,0,1-1.87084-2.70709v-.793a12.029,12.029,0,0,0,6.856,1.89106q6.09293,0,6.089-3.778a3.85136,3.85136,0,0,0-.988-2.703,5.64316,5.64316,0,0,0-2.43-1.59q-1.4415-.50849-3.168-1.06195-1.704-.55654-3.164-1.125a5.69389,5.69389,0,0,1-2.429-1.848A3.25772,3.25772,0,0,1,643.44349,142.97849Z"/>
      <path class="cls-3" d="M679.24344,157.30408c0,.66825-.9,1.215-2,1.215h-11.058a2.00588,2.00588,0,0,1-2-2v-19.852a2.00588,2.00588,0,0,1,2-2h11.058c1.1,0,2,.54676,2,1.215s-.9,1.215-2,1.215h-8.48a2.00588,2.00588,0,0,0-2,2v4.222a2.00588,2.00588,0,0,0,2,2h6.98c1.1,0,2,.56339,2,1.252s-.9,1.252-2,1.252h-6.98a2.00588,2.00588,0,0,0-2,2v4.26605a2.00588,2.00588,0,0,0,2,2h8.48C678.34344,156.08908,679.24344,156.63583,679.24344,157.30408Z"/>
      <path class="cls-6" d="M679.24344,157.30408c0,.66825-.9,1.215-2,1.215h-11.058a2.00588,2.00588,0,0,1-2-2v-19.852a2.00588,2.00588,0,0,1,2-2h11.058c1.1,0,2,.54676,2,1.215s-.9,1.215-2,1.215h-8.48a2.00588,2.00588,0,0,0-2,2v4.222a2.00588,2.00588,0,0,0,2,2h6.98c1.1,0,2,.56339,2,1.252s-.9,1.252-2,1.252h-6.98a2.00588,2.00588,0,0,0-2,2v4.26605a2.00588,2.00588,0,0,0,2,2h8.48C678.34344,156.08908,679.24344,156.63583,679.24344,157.30408Z"/>
      <path class="cls-3" d="M693.58505,139.58129c-.39414-1.027-1.039-1.02694-1.43306.00006l-2.75008,7.16744a1.2839,1.2839,0,0,0,1.28355,1.86727h4.367a1.28377,1.28377,0,0,0,1.28339-1.86721Zm-8.00546,17.07115a2.77387,2.77387,0,0,1-2.11462,1.86663c-.76809,0-1.06317-.836-.65574-1.85775l8.02943-20.13651c.40743-1.02177,1.32083-1.85776,2.02978-1.85776s1.62145.83635,2.02777,1.85856l8.00349,20.13491c.40632,1.0222.11821,1.85855-.64024,1.85855a2.76872,2.76872,0,0,1-2.098-1.86629l-1.429-3.70943a3.14532,3.14532,0,0,0-2.719-1.86629h-6.289a3.14345,3.14345,0,0,0-2.7181,1.86663Z"/>
      <path class="cls-6" d="M693.58505,139.58129c-.39414-1.027-1.039-1.02694-1.43306.00006l-2.75008,7.16744a1.2839,1.2839,0,0,0,1.28355,1.86727h4.367a1.28377,1.28377,0,0,0,1.28339-1.86721Zm-8.00546,17.07115a2.77387,2.77387,0,0,1-2.11462,1.86663c-.76809,0-1.06317-.836-.65574-1.85775l8.02943-20.13651c.40743-1.02177,1.32083-1.85776,2.02978-1.85776s1.62145.83635,2.02777,1.85856l8.00349,20.13491c.40632,1.0222.11821,1.85855-.64024,1.85855a2.76872,2.76872,0,0,1-2.098-1.86629l-1.429-3.70943a3.14532,3.14532,0,0,0-2.719-1.86629h-6.289a3.14345,3.14345,0,0,0-2.7181,1.86663Z"/>
      <path class="cls-3" d="M712.14249,137.09708a2.00588,2.00588,0,0,0-2,2v5.375a2.00588,2.00588,0,0,0,2,2h4.043a9.19213,9.19213,0,0,0,2.984-.418,3.45825,3.45825,0,0,0,1.742-1.141,4.95777,4.95777,0,0,0,.735-1.457,6.37582,6.37582,0,0,0,.195-1.68,6.49647,6.49647,0,0,0-.195-1.67895,4.98027,4.98027,0,0,0-.735-1.43805,3.519,3.519,0,0,0-1.742-1.156,9.417,9.417,0,0,0-2.984-.40594Zm-2,19.422c0,1.1-.581,2-1.291,2s-1.291-.9-1.291-2v-19.852a2.00588,2.00588,0,0,1,2-2h6.761a9.069,9.069,0,0,1,6,1.77,6.38857,6.38857,0,0,1,2.083,5.16,7.687,7.687,0,0,1-.477,2.789,6.098,6.098,0,0,1-1.113,1.953,6.273,6.273,0,0,1-1.48505,1.215,6.58563,6.58563,0,0,1-1.394.687l-.348.102c-.35254.0858-.14907.90967.45216,1.83082l4.35374,6.67038c.60123.92115.40758,1.67482-.43035,1.67482a3.69406,3.69406,0,0,1-2.61-1.67917l-4.05012-6.2597a4.1113,4.1113,0,0,0-3.08645-1.67917h-2.074a2.00588,2.00588,0,0,0-2,2Z"/>
      <path class="cls-6" d="M712.14249,137.09708a2.00588,2.00588,0,0,0-2,2v5.375a2.00588,2.00588,0,0,0,2,2h4.043a9.19213,9.19213,0,0,0,2.984-.418,3.45825,3.45825,0,0,0,1.742-1.141,4.95777,4.95777,0,0,0,.735-1.457,6.37582,6.37582,0,0,0,.195-1.68,6.49647,6.49647,0,0,0-.195-1.67895,4.98027,4.98027,0,0,0-.735-1.43805,3.519,3.519,0,0,0-1.742-1.156,9.417,9.417,0,0,0-2.984-.40594Zm-2,19.422c0,1.1-.581,2-1.291,2s-1.291-.9-1.291-2v-19.852a2.00588,2.00588,0,0,1,2-2h6.761a9.069,9.069,0,0,1,6,1.77,6.38857,6.38857,0,0,1,2.083,5.16,7.687,7.687,0,0,1-.477,2.789,6.098,6.098,0,0,1-1.113,1.953,6.273,6.273,0,0,1-1.48505,1.215,6.58563,6.58563,0,0,1-1.394.687l-.348.102c-.35254.0858-.14907.90967.45216,1.83082l4.35374,6.67038c.60123.92115.40758,1.67482-.43035,1.67482a3.69406,3.69406,0,0,1-2.61-1.67917l-4.05012-6.2597a4.1113,4.1113,0,0,0-3.08645-1.67917h-2.074a2.00588,2.00588,0,0,0-2,2Z"/>
      <path class="cls-3" d="M741.884,158.62016a10.53021,10.53021,0,0,1-3.86794-.50828s-9.17865-3.38584-9.17865-11.53482q0-12.24006,11.05506-12.238a22.03815,22.03815,0,0,1,5.34416.82652,2.84705,2.84705,0,0,1,1.9178,2.56749v.473a17.86339,17.86339,0,0,0-6.977-1.422q-4.5465,0-6.645,2.352-2.115,2.35491-2.113,7.441,0,5.06844,2.113,7.442,2.09858,2.355,6.645,2.355a20.13215,20.13215,0,0,0,5.06531-.81024,1.3959,1.3959,0,0,1,1.91168,1.41223v.461A22.6291,22.6291,0,0,1,741.884,158.62016Z"/>
      <path class="cls-6" d="M741.884,158.62016a10.53021,10.53021,0,0,1-3.86794-.50828s-9.17865-3.38584-9.17865-11.53482q0-12.24006,11.05506-12.238a22.03815,22.03815,0,0,1,5.34416.82652,2.84705,2.84705,0,0,1,1.9178,2.56749v.473a17.86339,17.86339,0,0,0-6.977-1.422q-4.5465,0-6.645,2.352-2.115,2.35491-2.113,7.441,0,5.06844,2.113,7.442,2.09858,2.355,6.645,2.355a20.13215,20.13215,0,0,0,5.06531-.81024,1.3959,1.3959,0,0,1,1.91168,1.41223v.461A22.6291,22.6291,0,0,1,741.884,158.62016Z"/>
      <path class="cls-3" d="M754.80649,156.51907c0,1.1-.581,2-1.291,2s-1.291-.9-1.291-2v-19.852c0-1.1.581-2,1.291-2s1.291.9,1.291,2v6.695a2.00588,2.00588,0,0,0,2,2h8.68695a2.00588,2.00588,0,0,0,2-2v-6.695c0-1.1.581-2,1.291-2s1.291.9,1.291,2v19.852c0,1.1-.581,2-1.291,2s-1.291-.9-1.291-2v-6.696a2.00588,2.00588,0,0,0-2-2h-8.68695a2.00588,2.00588,0,0,0-2,2Z"/>
      <path class="cls-6" d="M754.80649,156.51907c0,1.1-.581,2-1.291,2s-1.291-.9-1.291-2v-19.852c0-1.1.581-2,1.291-2s1.291.9,1.291,2v6.695a2.00588,2.00588,0,0,0,2,2h8.68695a2.00588,2.00588,0,0,0,2-2v-6.695c0-1.1.581-2,1.291-2s1.291.9,1.291,2v19.852c0,1.1-.581,2-1.291,2s-1.291-.9-1.291-2v-6.696a2.00588,2.00588,0,0,0-2-2h-8.68695a2.00588,2.00588,0,0,0-2,2Z"/>
      <path class="cls-3" d="M802.677,158.62016a10.53,10.53,0,0,1-3.86794-.50829s-9.17859-3.38583-9.17859-11.53481q0-12.24006,11.055-12.238a21.998,21.998,0,0,1,5.34033.82608,2.84786,2.84786,0,0,1,1.91766,2.56793v.473a17.82949,17.82949,0,0,0-6.973-1.422q-4.5465,0-6.645,2.352-2.115,2.35491-2.117,7.441,0,5.06844,2.117,7.442,2.09848,2.355,6.645,2.355a20.09381,20.09381,0,0,0,5.06143-.80977,1.39548,1.39548,0,0,1,1.91153,1.41176v.461A22.5732,22.5732,0,0,1,802.677,158.62016Z"/>
      <path class="cls-6" d="M802.677,158.62016a10.53,10.53,0,0,1-3.86794-.50829s-9.17859-3.38583-9.17859-11.53481q0-12.24006,11.055-12.238a21.998,21.998,0,0,1,5.34033.82608,2.84786,2.84786,0,0,1,1.91766,2.56793v.473a17.82949,17.82949,0,0,0-6.973-1.422q-4.5465,0-6.645,2.352-2.115,2.35491-2.117,7.441,0,5.06844,2.117,7.442,2.09848,2.355,6.645,2.355a20.09381,20.09381,0,0,0,5.06143-.80977,1.39548,1.39548,0,0,1,1.91153,1.41176v.461A22.5732,22.5732,0,0,1,802.677,158.62016Z"/>
      <path class="cls-3" d="M828.07547,157.30408c0,.66825-.9,1.215-2,1.215h-11.058a2.00588,2.00588,0,0,1-2-2v-19.852a2.00588,2.00588,0,0,1,2-2h11.058c1.1,0,2,.54676,2,1.215s-.9,1.215-2,1.215h-8.48a2.00588,2.00588,0,0,0-2,2v4.222a2.00588,2.00588,0,0,0,2,2h6.98c1.1,0,2,.56339,2,1.252s-.9,1.252-2,1.252h-6.98a2.00588,2.00588,0,0,0-2,2v4.26605a2.00588,2.00588,0,0,0,2,2h8.48C827.17547,156.08908,828.07547,156.63583,828.07547,157.30408Z"/>
      <path class="cls-6" d="M828.07547,157.30408c0,.66825-.9,1.215-2,1.215h-11.058a2.00588,2.00588,0,0,1-2-2v-19.852a2.00588,2.00588,0,0,1,2-2h11.058c1.1,0,2,.54676,2,1.215s-.9,1.215-2,1.215h-8.48a2.00588,2.00588,0,0,0-2,2v4.222a2.00588,2.00588,0,0,0,2,2h6.98c1.1,0,2,.56339,2,1.252s-.9,1.252-2,1.252h-6.98a2.00588,2.00588,0,0,0-2,2v4.26605a2.00588,2.00588,0,0,0,2,2h8.48C827.17547,156.08908,828.07547,156.63583,828.07547,157.30408Z"/>
      <path class="cls-3" d="M835.83743,156.51907c0,1.1-.581,2-1.291,2s-1.291-.9-1.291-2v-19.852c0-1.1.66174-2,1.47052-2a3.87147,3.87147,0,0,1,2.62634,1.6322l11.92335,16.83762c.6357.89771,1.15582.7322,1.15582-.3678v-16.102c0-1.1.57736-2,1.283-2s1.283.9,1.283,2v19.852c0,1.1-.65116,2-1.447,2a3.86089,3.86089,0,0,1-2.60452-1.631l-11.951-16.84c-.63662-.89706-1.1575-.731-1.1575.369Z"/>
      <path class="cls-6" d="M835.83743,156.51907c0,1.1-.581,2-1.291,2s-1.291-.9-1.291-2v-19.852c0-1.1.66174-2,1.47052-2a3.87147,3.87147,0,0,1,2.62634,1.6322l11.92335,16.83762c.6357.89771,1.15582.7322,1.15582-.3678v-16.102c0-1.1.57736-2,1.283-2s1.283.9,1.283,2v19.852c0,1.1-.65116,2-1.447,2a3.86089,3.86089,0,0,1-2.60452-1.631l-11.951-16.84c-.63662-.89706-1.1575-.731-1.1575.369Z"/>
      <path class="cls-3" d="M865.05252,139.17105a2.00588,2.00588,0,0,0-2-2h-4.43408c-1.1,0-2-.5634-2-1.252s.9-1.252,2-1.252h15.41c1.1,0,2,.5634,2,1.252s-.9,1.252-2,1.252H869.6304a2.00588,2.00588,0,0,0-2,2v17.348c0,1.1-.58,2-1.28894,2s-1.28894-.9-1.28894-2Z"/>
      <path class="cls-6" d="M865.05252,139.17105a2.00588,2.00588,0,0,0-2-2h-4.43408c-1.1,0-2-.5634-2-1.252s.9-1.252,2-1.252h15.41c1.1,0,2,.5634,2,1.252s-.9,1.252-2,1.252H869.6304a2.00588,2.00588,0,0,0-2,2v17.348c0,1.1-.58,2-1.28894,2s-1.28894-.9-1.28894-2Z"/>
      <path class="cls-3" d="M884.18143,137.09708a2.00588,2.00588,0,0,0-2,2v5.375a2.00588,2.00588,0,0,0,2,2h4.047a9.22583,9.22583,0,0,0,2.984-.418,3.44546,3.44546,0,0,0,1.738-1.141,4.769,4.769,0,0,0,.735-1.457,6.21129,6.21129,0,0,0,.19494-1.68,6.32562,6.32562,0,0,0-.19494-1.67895,4.78616,4.78616,0,0,0-.735-1.43805,3.506,3.506,0,0,0-1.738-1.156,9.45144,9.45144,0,0,0-2.984-.40594Zm-2,19.422c0,1.1-.58005,2-1.289,2s-1.289-.9-1.289-2v-19.852a2.00588,2.00588,0,0,1,2-2h6.75805a9.05831,9.05831,0,0,1,6,1.77,6.39271,6.39271,0,0,1,2.085,5.16,7.68775,7.68775,0,0,1-.48,2.789,6.11336,6.11336,0,0,1-1.109,1.953,6.35282,6.35282,0,0,1-1.485,1.215,6.58605,6.58605,0,0,1-1.394.687l-.35193.102c-.352.0858-.148.90961.45336,1.83067l4.35524,6.67068c.60135.92107.408,1.67467-.42964,1.67467a3.69518,3.69518,0,0,1-2.61-1.67885l-4.05316-6.26034a4.113,4.113,0,0,0-3.087-1.67885h-2.074a2.00588,2.00588,0,0,0-2,2Z"/>
      <path class="cls-6" d="M884.18143,137.09708a2.00588,2.00588,0,0,0-2,2v5.375a2.00588,2.00588,0,0,0,2,2h4.047a9.22583,9.22583,0,0,0,2.984-.418,3.44546,3.44546,0,0,0,1.738-1.141,4.769,4.769,0,0,0,.735-1.457,6.21129,6.21129,0,0,0,.19494-1.68,6.32562,6.32562,0,0,0-.19494-1.67895,4.78616,4.78616,0,0,0-.735-1.43805,3.506,3.506,0,0,0-1.738-1.156,9.45144,9.45144,0,0,0-2.984-.40594Zm-2,19.422c0,1.1-.58005,2-1.289,2s-1.289-.9-1.289-2v-19.852a2.00588,2.00588,0,0,1,2-2h6.75805a9.05831,9.05831,0,0,1,6,1.77,6.39271,6.39271,0,0,1,2.085,5.16,7.68775,7.68775,0,0,1-.48,2.789,6.11336,6.11336,0,0,1-1.109,1.953,6.35282,6.35282,0,0,1-1.485,1.215,6.58605,6.58605,0,0,1-1.394.687l-.35193.102c-.352.0858-.148.90961.45336,1.83067l4.35524,6.67068c.60135.92107.408,1.67467-.42964,1.67467a3.69518,3.69518,0,0,1-2.61-1.67885l-4.05316-6.26034a4.113,4.113,0,0,0-3.087-1.67885h-2.074a2.00588,2.00588,0,0,0-2,2Z"/>
      <path class="cls-3" d="M916.86844,157.30408c0,.66825-.9,1.215-2,1.215h-11.058a2.00588,2.00588,0,0,1-2-2v-19.852a2.00588,2.00588,0,0,1,2-2h11.058c1.1,0,2,.54676,2,1.215s-.9,1.215-2,1.215h-8.48a2.00588,2.00588,0,0,0-2,2v4.222a2.00588,2.00588,0,0,0,2,2h6.98c1.1,0,2,.56339,2,1.252s-.9,1.252-2,1.252h-6.98a2.00588,2.00588,0,0,0-2,2v4.26605a2.00588,2.00588,0,0,0,2,2h8.48C915.96844,156.08908,916.86844,156.63583,916.86844,157.30408Z"/>
      <path class="cls-6" d="M916.86844,157.30408c0,.66825-.9,1.215-2,1.215h-11.058a2.00588,2.00588,0,0,1-2-2v-19.852a2.00588,2.00588,0,0,1,2-2h11.058c1.1,0,2,.54676,2,1.215s-.9,1.215-2,1.215h-8.48a2.00588,2.00588,0,0,0-2,2v4.222a2.00588,2.00588,0,0,0,2,2h6.98c1.1,0,2,.56339,2,1.252s-.9,1.252-2,1.252h-6.98a2.00588,2.00588,0,0,0-2,2v4.26605a2.00588,2.00588,0,0,0,2,2h8.48C915.96844,156.08908,916.86844,156.63583,916.86844,157.30408Z"/>
      <path class="cls-4" d="M391.95854,9.70474A9.702,9.702,0,1,1,382.25378,0a9.704,9.704,0,0,1,9.70476,9.70474"/>
    </g>
  </g>
</svg>
