<svg xmlns="http://www.w3.org/2000/svg" xmlns:xlink="http://www.w3.org/1999/xlink" viewBox="0 0 384.20449 158.50203">
  <defs>
    <style>
      .cls-1, .cls-5 {
        fill: none;
      }

      .cls-2 {
        clip-path: url(#clip-path);
      }

      .cls-3 {
        fill: #182966;
      }

      .cls-4 {
        fill: #41d6ff;
      }

      .cls-5 {
        stroke: #182966;
        stroke-linecap: square;
        stroke-width: 0.168px;
      }
    </style>
    <clipPath id="clip-path">
      <rect class="cls-1" width="159.65198" height="158.41803"/>
    </clipPath>
  </defs>
  <g id="图层_2" data-name="图层 2">
    <g id="图层_1-2" data-name="图层 1">
      <g class="cls-2">
        <path class="cls-3" d="M87.438,114.902V9.465A44.26412,44.26412,0,0,0,70.364,44.336v70.566A26.38672,26.38672,0,0,1,44.028,141.238H43.41a26.28307,26.28307,0,0,1,0-52.566h8.333V71.597H43.41a43.41051,43.41051,0,0,0,0,86.821h.618A43.57676,43.57676,0,0,0,87.438,114.902Zm72.215-70.566A44.3406,44.3406,0,0,0,115.317,0H114.7a47.17536,47.17536,0,0,0-8.641.824V18.515a26.73359,26.73359,0,0,1,8.641-1.441h.617a27.26151,27.26151,0,0,1,0,54.523h-9.258V88.672h9.258A44.47384,44.47384,0,0,0,159.653,44.336Z"/>
        <path class="cls-4" d="M59.664,113.976A14.195,14.195,0,1,1,45.469,99.781a14.198,14.198,0,0,1,14.195,14.195"/>
        <path class="cls-4" d="M123.543,110.996a12.035,12.035,0,1,1-12.035-12.035,12.03532,12.03532,0,0,1,12.035,12.035"/>
        <path class="cls-4" d="M56.68,48.039a8.84551,8.84551,0,1,1-8.848-8.848,8.8473,8.8473,0,0,1,8.848,8.848"/>
        <path class="cls-4" d="M129.614,44.336A14.1955,14.1955,0,1,1,115.418,30.14a14.19607,14.19607,0,0,1,14.196,14.196"/>
      </g>
      <path class="cls-3" d="M221.88672,83.18753c-5.461-.65341-14.35429-1.188-19.76275-1.188a9.947,9.947,0,0,0-9.83356,10v39.82618a10.0294,10.0294,0,0,0,10,10h9.66713q12.95686,0,17.9897-5.71839a27.56788,27.56788,0,0,0,4.949-10.16973,50.78086,50.78086,0,0,0,1.87423-13.95563,48.309,48.309,0,0,0-2.22639-15.05359q-2.22486-6.8392-5.84311-10.18635A13.78442,13.78442,0,0,0,221.88672,83.18753ZM182.493,158.418a10.0294,10.0294,0,0,1-10-10V75.40717a10.0294,10.0294,0,0,1,10-10h29.46456q14.793,0,22.87357,2.92922,14.91356,5.42724,19.94439,19.94435a74.08873,74.08873,0,0,1,3.7637,23.84813,76.05927,76.05927,0,0,1-3.639,23.70809q-3.614,11.43679-11.9788,16.86268a32.94114,32.94114,0,0,1-11.642,4.53175q-6.36922,1.18528-19.32191,1.18664Z"/>
      <path class="cls-5" d="M221.88672,83.18753c-5.461-.65341-14.35429-1.188-19.76275-1.188a9.947,9.947,0,0,0-9.83356,10v39.82618a10.0294,10.0294,0,0,0,10,10h9.66713q12.95686,0,17.9897-5.71839a27.56788,27.56788,0,0,0,4.949-10.16973,50.78086,50.78086,0,0,0,1.87423-13.95563,48.309,48.309,0,0,0-2.22639-15.05359q-2.22486-6.8392-5.84311-10.18635A13.78442,13.78442,0,0,0,221.88672,83.18753ZM182.493,158.418a10.0294,10.0294,0,0,1-10-10V75.40717a10.0294,10.0294,0,0,1,10-10h29.46456q14.793,0,22.87357,2.92922,14.91356,5.42724,19.94439,19.94435a74.08873,74.08873,0,0,1,3.7637,23.84813,76.05927,76.05927,0,0,1-3.639,23.70809q-3.614,11.43679-11.9788,16.86268a32.94114,32.94114,0,0,1-11.642,4.53175q-6.36922,1.18528-19.32191,1.18664Z"/>
      <path class="cls-3" d="M288.55484,125.73658c-.47956,4.39934-.87193,9.85187-.87193,12.11674s4.5,4.11794,10,4.11794h40.77992c5.5,0,10,3.70053,10,8.22339s-4.5,8.22338-10,8.22338H278.01029a10.0294,10.0294,0,0,1-10-10V133.73538q-.2683-15.62055,7.81853-23.85367a19.39814,19.39814,0,0,1,8.21512-4.86305,21.01617,21.01617,0,0,1,3.9575-.882c5.49592-.21181,14.49258-.3851,19.99258-.3851h5.20057q7.67508,0,10.87809-1.80908a9.43587,9.43587,0,0,0,5.01-8.65315q0-6.25487-4.59281-9.18963l-2.33443-1.40154c-4.92849-.38428-13.46088-.69869-18.96088-.69869H279.40206c-5.5,0-10-3.73327-10-8.29617s4.5-8.29617,10-8.29617h37.97209q17.84561,0,24.82827,5.98873a21.15507,21.15507,0,0,1,6.40594,8.99972,33.04252,33.04252,0,0,1,2.22639,12.20615,34.54352,34.54352,0,0,1-2.78922,14.29112,19.49474,19.49474,0,0,1-7.65084,9.12448c-4.83674,2.88623-11.8047,3.479-11.8047,3.479-5.48021.46618-14.464.8476-19.964.8476h-3.10584a47.61881,47.61881,0,0,0-10.39707.83317,8.68129,8.68129,0,0,0-5.06824,3.07614Z"/>
      <path class="cls-5" d="M288.55484,125.73658c-.47956,4.39934-.87193,9.85187-.87193,12.11674s4.5,4.11794,10,4.11794h40.77992c5.5,0,10,3.70053,10,8.22339s-4.5,8.22338-10,8.22338H278.01029a10.0294,10.0294,0,0,1-10-10V133.73538q-.2683-15.62055,7.81853-23.85367a19.39814,19.39814,0,0,1,8.21512-4.86305,21.01617,21.01617,0,0,1,3.9575-.882c5.49592-.21181,14.49258-.3851,19.99258-.3851h5.20057q7.67508,0,10.87809-1.80908a9.43587,9.43587,0,0,0,5.01-8.65315q0-6.25487-4.59281-9.18963l-2.33443-1.40154c-4.92849-.38428-13.46088-.69869-18.96088-.69869H279.40206c-5.5,0-10-3.73327-10-8.29617s4.5-8.29617,10-8.29617h37.97209q17.84561,0,24.82827,5.98873a21.15507,21.15507,0,0,1,6.40594,8.99972,33.04252,33.04252,0,0,1,2.22639,12.20615,34.54352,34.54352,0,0,1-2.78922,14.29112,19.49474,19.49474,0,0,1-7.65084,9.12448c-4.83674,2.88623-11.8047,3.479-11.8047,3.479-5.48021.46618-14.464.8476-19.964.8476h-3.10584a47.61881,47.61881,0,0,0-10.39707.83317,8.68129,8.68129,0,0,0-5.06824,3.07614Z"/>
      <ellipse class="cls-3" cx="374.30499" cy="112.07001" rx="9.89949" ry="45.96194"/>
      <path class="cls-4" d="M383.25179,51.12168a8.84551,8.84551,0,1,1-8.848-8.848,8.8473,8.8473,0,0,1,8.848,8.848"/>
    </g>
  </g>
</svg>
