<svg xmlns="http://www.w3.org/2000/svg" xmlns:xlink="http://www.w3.org/1999/xlink" viewBox="0 0 552.96013 163.09677">
  <defs>
    <style>
      .cls-1, .cls-5, .cls-6 {
        fill: none;
      }

      .cls-2 {
        clip-path: url(#clip-path);
      }

      .cls-3 {
        fill: #182966;
      }

      .cls-4 {
        fill: #41d6ff;
      }

      .cls-5, .cls-6 {
        stroke: #182966;
        stroke-linecap: square;
      }

      .cls-5 {
        stroke-width: 0.168px;
      }

      .cls-6 {
        stroke-width: 1.1925px;
      }
    </style>
    <clipPath id="clip-path">
      <rect class="cls-1" y="4.08249" width="159.65198" height="158.41803"/>
    </clipPath>
  </defs>
  <g id="图层_2" data-name="图层 2">
    <g id="图层_1-2" data-name="图层 1">
      <g class="cls-2">
        <path class="cls-3" d="M87.438,118.98447V13.54749a44.26412,44.26412,0,0,0-17.074,34.871v70.566a26.38673,26.38673,0,0,1-26.336,26.33606H43.41a26.28307,26.28307,0,0,1,0-52.566h8.333V75.6795H43.41a43.41051,43.41051,0,0,0,0,86.821h.618A43.57676,43.57676,0,0,0,87.438,118.98447Zm72.215-70.566a44.3406,44.3406,0,0,0-44.336-44.336H114.7a47.17625,47.17625,0,0,0-8.641.824v17.691a26.7336,26.7336,0,0,1,8.641-1.441h.617a27.26151,27.26151,0,0,1,0,54.523h-9.258v17.075h9.258A44.47384,44.47384,0,0,0,159.653,48.41849Z"/>
        <path class="cls-4" d="M59.664,118.0585a14.195,14.195,0,1,1-14.195-14.195,14.198,14.198,0,0,1,14.195,14.195"/>
        <path class="cls-4" d="M123.543,115.07852a12.035,12.035,0,1,1-12.035-12.035,12.03532,12.03532,0,0,1,12.035,12.035"/>
        <path class="cls-4" d="M56.68,52.12149a8.84551,8.84551,0,1,1-8.848-8.848,8.8473,8.8473,0,0,1,8.848,8.848"/>
        <path class="cls-4" d="M129.614,48.41849a14.1955,14.1955,0,1,1-14.196-14.196,14.19606,14.19606,0,0,1,14.196,14.196"/>
      </g>
      <path class="cls-3" d="M214.26353,36.17151c-5.24041-.627-12.7201-1.14-16.62152-1.14s-7.09351,4.5-7.09351,10v23.156a10.0294,10.0294,0,0,0,10,10h4.187q9.34653,0,12.977-4.125a19.886,19.886,0,0,0,3.57-7.336,36.63081,36.63081,0,0,0,1.352-10.067,34.84794,34.84794,0,0,0-1.606-10.859,16.9984,16.9984,0,0,0-4.215-7.348Zm-27.996,53.985a10.0294,10.0294,0,0,1-10-10V33.0625a10.0294,10.0294,0,0,1,10-10h18.468q10.671,0,16.5,2.113a22.603,22.603,0,0,1,14.387,14.387,53.44437,53.44437,0,0,1,2.715,17.203,54.866,54.866,0,0,1-2.625,17.102q-2.607,8.25-8.641,12.164a23.76239,23.76239,0,0,1-8.398,3.269,82.92522,82.92522,0,0,1-13.938.856Z"/>
      <path class="cls-5" d="M214.26353,36.17151c-5.24041-.627-12.7201-1.14-16.62152-1.14s-7.09351,4.5-7.09351,10v23.156a10.0294,10.0294,0,0,0,10,10h4.187q9.34653,0,12.977-4.125a19.886,19.886,0,0,0,3.57-7.336,36.63081,36.63081,0,0,0,1.352-10.067,34.84794,34.84794,0,0,0-1.606-10.859,16.9984,16.9984,0,0,0-4.215-7.348Zm-27.996,53.985a10.0294,10.0294,0,0,1-10-10V33.0625a10.0294,10.0294,0,0,1,10-10h18.468q10.671,0,16.5,2.113a22.603,22.603,0,0,1,14.387,14.387,53.44437,53.44437,0,0,1,2.715,17.203,54.866,54.866,0,0,1-2.625,17.102q-2.607,8.25-8.641,12.164a23.76239,23.76239,0,0,1-8.398,3.269,82.92522,82.92522,0,0,1-13.938.856Z"/>
      <path class="cls-3" d="M259.98948,66.58151c-.34593,3.1735-.629,7.10672-.629,8.7405s4.5,2.9705,10,2.9705h23.844c5.5,0,10,2.6694,10,5.932s-4.5,5.932-10,5.932h-38.035a10.0294,10.0294,0,0,1-10-10v-7.805q-.19355-11.268,5.64-17.207a13.99287,13.99287,0,0,1,5.926-3.508l2.149-.609c4.3527-.16775,12.414-.305,17.914-.305h.965q5.53647,0,7.847-1.305a6.80662,6.80662,0,0,0,3.614-6.242,7.30132,7.30132,0,0,0-3.31305-6.629l-1.684-1.011c-3.5552-.2772-10.964-.504-16.464-.504h-11.59c-5.5,0-10-2.693-10-5.98449s4.5-5.9845,10-5.9845h24.605q12.873,0,17.91,4.32a15.26026,15.26026,0,0,1,4.621,6.492,23.83561,23.83561,0,0,1,1.606,8.805,24.918,24.918,0,0,1-2.012,10.309,14.06258,14.06258,0,0,1-5.519,6.582,15.08208,15.08208,0,0,1-5.739,2.27339c-5.48021.46619-14.21831.84761-19.418.84761h0a34.34983,34.34983,0,0,0-7.5.601,6.26229,6.26229,0,0,0-3.656,2.219Z"/>
      <path class="cls-5" d="M259.98948,66.58151c-.34593,3.1735-.629,7.10672-.629,8.7405s4.5,2.9705,10,2.9705h23.844c5.5,0,10,2.6694,10,5.932s-4.5,5.932-10,5.932h-38.035a10.0294,10.0294,0,0,1-10-10v-7.805q-.19355-11.268,5.64-17.207a13.99287,13.99287,0,0,1,5.926-3.508l2.149-.609c4.3527-.16775,12.414-.305,17.914-.305h.965q5.53647,0,7.847-1.305a6.80662,6.80662,0,0,0,3.614-6.242,7.30132,7.30132,0,0,0-3.31305-6.629l-1.684-1.011c-3.5552-.2772-10.964-.504-16.464-.504h-11.59c-5.5,0-10-2.693-10-5.98449s4.5-5.9845,10-5.9845h24.605q12.873,0,17.91,4.32a15.26026,15.26026,0,0,1,4.621,6.492,23.83561,23.83561,0,0,1,1.606,8.805,24.918,24.918,0,0,1-2.012,10.309,14.06258,14.06258,0,0,1-5.519,6.582,15.08208,15.08208,0,0,1-5.739,2.27339c-5.48021.46619-14.21831.84761-19.418.84761h0a34.34983,34.34983,0,0,0-7.5.601,6.26229,6.26229,0,0,0-3.656,2.219Z"/>
      <ellipse class="cls-3" cx="321.91898" cy="56.6095" rx="7.26977" ry="33.30048"/>
      <ellipse class="cls-5" cx="321.91898" cy="56.6095" rx="7.26977" ry="33.30048"/>
      <path class="cls-3" d="M180.72433,101.87818a2.00588,2.00588,0,0,0-2,2v14.09113a2.00588,2.00588,0,0,0,2,2h2.4952q4.34728,0,6.36137-2.18487,2.00034-2.16859,1.9984-6.86261,0-4.69255-1.9984-6.87689-2.01315-2.16867-6.36137-2.16676ZM185.275,121.6101a13.90861,13.90861,0,0,1-3.88424.67053h-3.12325a2.00588,2.00588,0,0,1-2-2V101.59345a2.00588,2.00588,0,0,1,2-2h5.12325q10.63927,0,10.64066,11.32838C194.0314,118.494,185.275,121.6101,185.275,121.6101Z"/>
      <path class="cls-6" d="M180.72433,101.87818a2.00588,2.00588,0,0,0-2,2v14.09113a2.00588,2.00588,0,0,0,2,2h2.4952q4.34728,0,6.36137-2.18487,2.00034-2.16859,1.9984-6.86261,0-4.69255-1.9984-6.87689-2.01315-2.16867-6.36137-2.16676ZM185.275,121.6101a13.90861,13.90861,0,0,1-3.88424.67053h-3.12325a2.00588,2.00588,0,0,1-2-2V101.59345a2.00588,2.00588,0,0,1,2-2h5.12325q10.63927,0,10.64066,11.32838C194.0314,118.494,185.275,121.6101,185.275,121.6101Z"/>
      <path class="cls-3" d="M207.80829,104.359c-.394-1.027-1.03893-1.027-1.43306-.00006l-2.54647,6.63513a1.28377,1.28377,0,0,0,1.28339,1.86721h3.95838a1.2839,1.2839,0,0,0,1.28355-1.86727Zm-7.61821,16.05536c-.39544,1.02647-1.31586,1.8663-2.04538,1.8663s-.993-.836-.58555-1.85772l7.56579-18.97173c.40746-1.02175,1.29257-1.85773,1.9669-1.85773s1.55846.83636,1.96474,1.85858l7.53962,18.97c.40628,1.02222.14781,1.85858-.57438,1.85858s-1.63633-.84-2.03141-1.86655l-1.28748-3.34547a3.14395,3.14395,0,0,0-2.71833-1.86655h-5.78652a3.14533,3.14533,0,0,0-2.719,1.8663Z"/>
      <path class="cls-6" d="M207.80829,104.359c-.394-1.027-1.03893-1.027-1.43306-.00006l-2.54647,6.63513a1.28377,1.28377,0,0,0,1.28339,1.86721h3.95838a1.2839,1.2839,0,0,0,1.28355-1.86727Zm-7.61821,16.05536c-.39544,1.02647-1.31586,1.8663-2.04538,1.8663s-.993-.836-.58555-1.85772l7.56579-18.97173c.40746-1.02175,1.29257-1.85773,1.9669-1.85773s1.55846.83636,1.96474,1.85858l7.53962,18.97c.40628,1.02222.14781,1.85858-.57438,1.85858s-1.63633-.84-2.03141-1.86655l-1.28748-3.34547a3.14395,3.14395,0,0,0-2.71833-1.86655h-5.78652a3.14533,3.14533,0,0,0-2.719,1.8663Z"/>
      <path class="cls-3" d="M226.546,103.97519a2.00588,2.00588,0,0,0-2-2h-4.02213c-1.1,0-2-.53589-2-1.19087s.9-1.19087,2-1.19087h14.462c1.1,0,2,.53589,2,1.19087s-.9,1.19087-2,1.19087h-3.98781a2.00588,2.00588,0,0,0-2,2v16.30544c0,1.1-.55172,2-1.22605,2s-1.226-.9-1.226-2Z"/>
      <path class="cls-6" d="M226.546,103.97519a2.00588,2.00588,0,0,0-2-2h-4.02213c-1.1,0-2-.53589-2-1.19087s.9-1.19087,2-1.19087h14.462c1.1,0,2,.53589,2,1.19087s-.9,1.19087-2,1.19087h-3.98781a2.00588,2.00588,0,0,0-2,2v16.30544c0,1.1-.55172,2-1.22605,2s-1.226-.9-1.226-2Z"/>
      <path class="cls-3" d="M249.13549,104.35891c-.39414-1.027-1.03935-1.02707-1.43381-.00023l-2.54906,6.63559a1.28327,1.28327,0,0,0,1.2828,1.867h3.96314A1.28377,1.28377,0,0,0,251.682,110.994Zm-7.61837,16.05542c-.39544,1.02647-1.31586,1.8663-2.04538,1.8663s-.99313-.836-.58581-1.85783l7.56254-18.97152c.40732-1.0218,1.29316-1.85783,1.96852-1.85783s1.56035.83636,1.96663,1.85858l7.53962,18.97c.40628,1.02222.14781,1.85858-.57438,1.85858s-1.63632-.84-2.03141-1.86655L254.03,117.06861a3.14395,3.14395,0,0,0-2.71833-1.86655h-5.78651a3.14535,3.14535,0,0,0-2.719,1.8663Z"/>
      <path class="cls-6" d="M249.13549,104.35891c-.39414-1.027-1.03935-1.02707-1.43381-.00023l-2.54906,6.63559a1.28327,1.28327,0,0,0,1.2828,1.867h3.96314A1.28377,1.28377,0,0,0,251.682,110.994Zm-7.61837,16.05542c-.39544,1.02647-1.31586,1.8663-2.04538,1.8663s-.99313-.836-.58581-1.85783l7.56254-18.97152c.40732-1.0218,1.29316-1.85783,1.96852-1.85783s1.56035.83636,1.96663,1.85858l7.53962,18.97c.40628,1.02222.14781,1.85858-.57438,1.85858s-1.63632-.84-2.03141-1.86655L254.03,117.06861a3.14395,3.14395,0,0,0-2.71833-1.86655h-5.78651a3.14535,3.14535,0,0,0-2.719,1.8663Z"/>
      <path class="cls-3" d="M281.409,103.97519a2.00588,2.00588,0,0,0-2-2h-4.01829c-1.1,0-2-.53589-2-1.19087s.9-1.19087,2-1.19087h14.462c1.1,0,2,.53589,2,1.19087s-.9,1.19087-2,1.19087h-3.99165a2.00588,2.00588,0,0,0-2,2v16.30544c0,1.1-.55172,2-1.22605,2s-1.226-.9-1.226-2Z"/>
      <path class="cls-6" d="M281.409,103.97519a2.00588,2.00588,0,0,0-2-2h-4.01829c-1.1,0-2-.53589-2-1.19087s.9-1.19087,2-1.19087h14.462c1.1,0,2,.53589,2,1.19087s-.9,1.19087-2,1.19087h-3.99165a2.00588,2.00588,0,0,0-2,2v16.30544c0,1.1-.55172,2-1.22605,2s-1.226-.9-1.226-2Z"/>
      <path class="cls-3" d="M300.42071,102.72958a9.05462,9.05462,0,0,0-2.56118,2.90042,12.71827,12.71827,0,0,0-1.04265,5.29183q0,4.82092,1.94326,7.07857,1.93887,2.24,6.11881,2.24,4.22458,0,6.1645-2.24,1.92747-2.25715,1.92416-7.07857,0-4.83668-1.92416-7.07758-1.94043-2.23574-6.1645-2.23718A8.53326,8.53326,0,0,0,300.42071,102.72958Zm6.33527,19.13164a6.31768,6.31768,0,0,1-3.75341-.00176s-8.63779-3.18662-8.63779-10.93763q0-11.64228,10.51417-11.64031,10.54506,0,10.54459,11.64031C315.42354,118.67284,306.756,121.86122,306.756,121.86122Z"/>
      <path class="cls-6" d="M300.42071,102.72958a9.05462,9.05462,0,0,0-2.56118,2.90042,12.71827,12.71827,0,0,0-1.04265,5.29183q0,4.82092,1.94326,7.07857,1.93887,2.24,6.11881,2.24,4.22458,0,6.1645-2.24,1.92747-2.25715,1.92416-7.07857,0-4.83668-1.92416-7.07758-1.94043-2.23574-6.1645-2.23718A8.53326,8.53326,0,0,0,300.42071,102.72958Zm6.33527,19.13164a6.31768,6.31768,0,0,1-3.75341-.00176s-8.63779-3.18662-8.63779-10.93763q0-11.64228,10.51417-11.64031,10.54506,0,10.54459,11.64031C315.42354,118.67284,306.756,121.86122,306.756,121.86122Z"/>
      <path class="cls-3" d="M334.19472,101.59345c0-1.1.55257-2,1.22794-2s1.22793.9,1.22793,2v18.68712c0,1.1-.55257,2-1.22793,2s-1.22794-.9-1.22794-2Z"/>
      <path class="cls-6" d="M334.19472,101.59345c0-1.1.55257-2,1.22794-2s1.22793.9,1.22793,2v18.68712c0,1.1-.55257,2-1.22793,2s-1.22794-.9-1.22794-2Z"/>
      <path class="cls-3" d="M344.97994,120.28063c0,1.1-.55172,2-1.226,2s-1.226-.9-1.226-2V101.59345c0-1.1.62963-2,1.39917-2a3.82464,3.82464,0,0,1,2.55494,1.63224l11.22732,15.85584c.63567.89773,1.15577.73224,1.15577-.36776V101.59345c0-1.1.54851-2,1.21891-2s1.21891.9,1.21891,2v18.68718c0,1.1-.61957,2-1.37682,2a3.81663,3.81663,0,0,1-2.53431-1.631l-11.25429-15.8583c-.63662-.897-1.1575-.731-1.1575.369Z"/>
      <path class="cls-6" d="M344.97994,120.28063c0,1.1-.55172,2-1.226,2s-1.226-.9-1.226-2V101.59345c0-1.1.62963-2,1.39917-2a3.82464,3.82464,0,0,1,2.55494,1.63224l11.22732,15.85584c.63567.89773,1.15577.73224,1.15577-.36776V101.59345c0-1.1.54851-2,1.21891-2s1.21891.9,1.21891,2v18.68718c0,1.1-.61957,2-1.37682,2a3.81663,3.81663,0,0,1-2.53431-1.631l-11.25429-15.8583c-.63662-.897-1.1575-.731-1.1575.369Z"/>
      <path class="cls-3" d="M372.76819,103.97519a2.00588,2.00588,0,0,0-2-2h-4.01737c-1.1,0-2-.53589-2-1.19087s.9-1.19087,2-1.19087h14.4621c1.1,0,2,.53589,2,1.19087s-.9,1.19087-2,1.19087h-3.99263a2.00588,2.00588,0,0,0-2,2v16.30544c0,1.1-.55173,2-1.226,2s-1.226-.9-1.226-2Z"/>
      <path class="cls-6" d="M372.76819,103.97519a2.00588,2.00588,0,0,0-2-2h-4.01737c-1.1,0-2-.53589-2-1.19087s.9-1.19087,2-1.19087h14.4621c1.1,0,2,.53589,2,1.19087s-.9,1.19087-2,1.19087h-3.99263a2.00588,2.00588,0,0,0-2,2v16.30544c0,1.1-.55173,2-1.226,2s-1.226-.9-1.226-2Z"/>
      <path class="cls-3" d="M400.93593,121.125c0,.63561-.9,1.15566-2,1.15566H388.60852a2.00588,2.00588,0,0,1-2-2V101.59345a2.00588,2.00588,0,0,1,2-2h10.32741c1.1,0,2,.52006,2,1.15569s-.9,1.15569-2,1.15569h-7.87148a2.00588,2.00588,0,0,0-2,2v3.82044a2.00588,2.00588,0,0,0,2,2h6.44474c1.1,0,2,.53588,2,1.19084s-.9,1.19084-2,1.19084h-6.44474a2.00588,2.00588,0,0,0-2,2v3.86236a2.00588,2.00588,0,0,0,2,2h7.87148C400.03593,119.96931,400.93593,120.48936,400.93593,121.125Z"/>
      <path class="cls-6" d="M400.93593,121.125c0,.63561-.9,1.15566-2,1.15566H388.60852a2.00588,2.00588,0,0,1-2-2V101.59345a2.00588,2.00588,0,0,1,2-2h10.32741c1.1,0,2,.52006,2,1.15569s-.9,1.15569-2,1.15569h-7.87148a2.00588,2.00588,0,0,0-2,2v3.82044a2.00588,2.00588,0,0,0,2,2h6.44474c1.1,0,2,.53588,2,1.19084s-.9,1.19084-2,1.19084h-6.44474a2.00588,2.00588,0,0,0-2,2v3.86236a2.00588,2.00588,0,0,0,2,2h7.87148C400.03593,119.96931,400.93593,120.48936,400.93593,121.125Z"/>
      <path class="cls-3" d="M419.91448,121.08788c0,.656-.9,1.19275-2,1.19275H407.862a2.00588,2.00588,0,0,1-2-2V101.59345c0-1.1.55172-2,1.226-2s1.226.9,1.226,2v16.30167a2.00588,2.00588,0,0,0,2,2h7.60042C419.01448,119.89512,419.91448,120.43186,419.91448,121.08788Z"/>
      <path class="cls-6" d="M419.91448,121.08788c0,.656-.9,1.19275-2,1.19275H407.862a2.00588,2.00588,0,0,1-2-2V101.59345c0-1.1.55172-2,1.226-2s1.226.9,1.226,2v16.30167a2.00588,2.00588,0,0,0,2,2h7.60042C419.01448,119.89512,419.91448,120.43186,419.91448,121.08788Z"/>
      <path class="cls-3" d="M437.63749,121.08788c0,.656-.9,1.19275-2,1.19275H425.5812a2.00588,2.00588,0,0,1-2-2V101.59345c0-1.1.55257-2,1.22793-2s1.22794.9,1.22794,2v16.30167a2.00588,2.00588,0,0,0,2,2h7.60042C436.73749,119.89512,437.63749,120.43186,437.63749,121.08788Z"/>
      <path class="cls-6" d="M437.63749,121.08788c0,.656-.9,1.19275-2,1.19275H425.5812a2.00588,2.00588,0,0,1-2-2V101.59345c0-1.1.55257-2,1.22793-2s1.22794.9,1.22794,2v16.30167a2.00588,2.00588,0,0,0,2,2h7.60042C436.73749,119.89512,437.63749,120.43186,437.63749,121.08788Z"/>
      <path class="cls-3" d="M441.30421,101.59345c0-1.1.55172-2,1.226-2s1.226.9,1.226,2v18.68712c0,1.1-.55173,2-1.226,2s-1.226-.9-1.226-2Z"/>
      <path class="cls-6" d="M441.30421,101.59345c0-1.1.55172-2,1.226-2s1.226.9,1.226,2v18.68712c0,1.1-.55173,2-1.226,2s-1.226-.9-1.226-2Z"/>
      <path class="cls-3" d="M461.25731,122.33724a10.15554,10.15554,0,0,1-3.86488-.47772s-8.63875-3.18668-8.63875-10.93769q0-11.64228,10.51516-11.64031a20.56826,20.56826,0,0,1,5.23434.84435,2.89584,2.89584,0,0,1,1.90983,2.59378v.3703a16.8817,16.8817,0,0,0-6.87312-1.45624q-4.32447,0-6.32427,2.24-2.006,2.25716-2.00984,7.04815,0,4.82092,2.00984,7.04809,2.00175,2.24148,6.32427,2.241a15.27456,15.27456,0,0,0,3.26294-.35353,2.68388,2.68388,0,0,0,1.9428-2.47491v-3.07479a2.00588,2.00588,0,0,0-2-2h-1.47679c-1.1,0-2-.53332-2-1.18515s.9-1.18516,2-1.18516h3.93266a2.00588,2.00588,0,0,1,2,2v8.8452A21.79422,21.79422,0,0,1,461.25731,122.33724Z"/>
      <path class="cls-6" d="M461.25731,122.33724a10.15554,10.15554,0,0,1-3.86488-.47772s-8.63875-3.18668-8.63875-10.93769q0-11.64228,10.51516-11.64031a20.56826,20.56826,0,0,1,5.23434.84435,2.89584,2.89584,0,0,1,1.90983,2.59378v.3703a16.8817,16.8817,0,0,0-6.87312-1.45624q-4.32447,0-6.32427,2.24-2.006,2.25716-2.00984,7.04815,0,4.82092,2.00984,7.04809,2.00175,2.24148,6.32427,2.241a15.27456,15.27456,0,0,0,3.26294-.35353,2.68388,2.68388,0,0,0,1.9428-2.47491v-3.07479a2.00588,2.00588,0,0,0-2-2h-1.47679c-1.1,0-2-.53332-2-1.18515s.9-1.18516,2-1.18516h3.93266a2.00588,2.00588,0,0,1,2,2v8.8452A21.79422,21.79422,0,0,1,461.25731,122.33724Z"/>
      <path class="cls-3" d="M486.9895,121.125c0,.63561-.9,1.15566-2,1.15566H474.66308a2.00588,2.00588,0,0,1-2-2V101.59345a2.00588,2.00588,0,0,1,2-2H484.9895c1.1,0,2,.52006,2,1.15569s-.9,1.15569-2,1.15569H477.119a2.00588,2.00588,0,0,0-2,2v3.82044a2.00588,2.00588,0,0,0,2,2h6.44375c1.1,0,2,.53588,2,1.19084s-.9,1.19084-2,1.19084H477.119a2.00588,2.00588,0,0,0-2,2v3.86236a2.00588,2.00588,0,0,0,2,2h7.87049C486.0895,119.96931,486.9895,120.48936,486.9895,121.125Z"/>
      <path class="cls-6" d="M486.9895,121.125c0,.63561-.9,1.15566-2,1.15566H474.66308a2.00588,2.00588,0,0,1-2-2V101.59345a2.00588,2.00588,0,0,1,2-2H484.9895c1.1,0,2,.52006,2,1.15569s-.9,1.15569-2,1.15569H477.119a2.00588,2.00588,0,0,0-2,2v3.82044a2.00588,2.00588,0,0,0,2,2h6.44375c1.1,0,2,.53588,2,1.19084s-.9,1.19084-2,1.19084H477.119a2.00588,2.00588,0,0,0-2,2v3.86236a2.00588,2.00588,0,0,0,2,2h7.87049C486.0895,119.96931,486.9895,120.48936,486.9895,121.125Z"/>
      <path class="cls-3" d="M494.36862,120.28063c0,1.1-.55172,2-1.22605,2s-1.226-.9-1.226-2V101.59345c0-1.1.62855-2,1.39679-2a3.824,3.824,0,0,1,2.55282,1.632l11.23155,15.85622c.63582.89763,1.156.73205,1.156-.368V101.59345c0-1.1.54829-2,1.21842-2s1.21842.9,1.21842,2v18.68718c0,1.1-.61935,2-1.37633,2a3.81636,3.81636,0,0,1-2.53382-1.631l-11.25428-15.8583c-.63663-.897-1.1575-.731-1.1575.369Z"/>
      <path class="cls-6" d="M494.36862,120.28063c0,1.1-.55172,2-1.22605,2s-1.226-.9-1.226-2V101.59345c0-1.1.62855-2,1.39679-2a3.824,3.824,0,0,1,2.55282,1.632l11.23155,15.85622c.63582.89763,1.156.73205,1.156-.368V101.59345c0-1.1.54829-2,1.21842-2s1.21842.9,1.21842,2v18.68718c0,1.1-.61935,2-1.37633,2a3.81636,3.81636,0,0,1-2.53382-1.631l-11.25428-15.8583c-.63663-.897-1.1575-.731-1.1575.369Z"/>
      <path class="cls-3" d="M528.29829,122.3678a10.52993,10.52993,0,0,1-3.86793-.50829s-8.63869-3.18667-8.63869-10.93768q0-11.64228,10.51509-11.64031a20.41342,20.41342,0,0,1,4.98957.75843,2.847,2.847,0,0,1,1.9178,2.56748v.35219a16.99118,16.99118,0,0,0-6.63631-1.35255q-4.31872,0-6.31951,2.23718-2.01167,2.2399-2.00978,7.07758,0,4.82092,2.00978,7.07857,2.00026,2.24,6.31951,2.24a18.62255,18.62255,0,0,0,4.72462-.742,1.39591,1.39591,0,0,1,1.91169,1.41224v.34081A20.95083,20.95083,0,0,1,528.29829,122.3678Z"/>
      <path class="cls-6" d="M528.29829,122.3678a10.52993,10.52993,0,0,1-3.86793-.50829s-8.63869-3.18667-8.63869-10.93768q0-11.64228,10.51509-11.64031a20.41342,20.41342,0,0,1,4.98957.75843,2.847,2.847,0,0,1,1.9178,2.56748v.35219a16.99118,16.99118,0,0,0-6.63631-1.35255q-4.31872,0-6.31951,2.23718-2.01167,2.2399-2.00978,7.07758,0,4.82092,2.00978,7.07857,2.00026,2.24,6.31951,2.24a18.62255,18.62255,0,0,0,4.72462-.742,1.39591,1.39591,0,0,1,1.91169,1.41224v.34081A20.95083,20.95083,0,0,1,528.29829,122.3678Z"/>
      <path class="cls-3" d="M552.36388,121.125c0,.63561-.9,1.15566-2,1.15566H540.03647a2.00588,2.00588,0,0,1-2-2V101.59345a2.00588,2.00588,0,0,1,2-2h10.32741c1.1,0,2,.52006,2,1.15569s-.9,1.15569-2,1.15569H542.4924a2.00588,2.00588,0,0,0-2,2v3.82044a2.00588,2.00588,0,0,0,2,2h6.44474c1.1,0,2,.53588,2,1.19084s-.9,1.19084-2,1.19084H542.4924a2.00588,2.00588,0,0,0-2,2v3.86236a2.00588,2.00588,0,0,0,2,2h7.87148C551.46388,119.96931,552.36388,120.48936,552.36388,121.125Z"/>
      <path class="cls-6" d="M552.36388,121.125c0,.63561-.9,1.15566-2,1.15566H540.03647a2.00588,2.00588,0,0,1-2-2V101.59345a2.00588,2.00588,0,0,1,2-2h10.32741c1.1,0,2,.52006,2,1.15569s-.9,1.15569-2,1.15569H542.4924a2.00588,2.00588,0,0,0-2,2v3.82044a2.00588,2.00588,0,0,0,2,2h6.44474c1.1,0,2,.53588,2,1.19084s-.9,1.19084-2,1.19084H542.4924a2.00588,2.00588,0,0,0-2,2v3.86236a2.00588,2.00588,0,0,0,2,2h7.87148C551.46388,119.96931,552.36388,120.48936,552.36388,121.125Z"/>
      <path class="cls-3" d="M180.72433,141.85366a2.00588,2.00588,0,0,0-2,2v4.91715a2.00588,2.00588,0,0,0,2,2h3.74691a8.78546,8.78546,0,0,0,2.843-.39762,3.29373,3.29373,0,0,0,1.6531-1.08526,4.597,4.597,0,0,0,.69816-1.38588,6.06078,6.06078,0,0,0,.18647-1.59794,6.176,6.176,0,0,0-.18647-1.597,4.61567,4.61567,0,0,0-.69816-1.36782,3.35152,3.35152,0,0,0-1.6531-1.09949,8.99885,8.99885,0,0,0-2.843-.38618Zm-2,18.3758c0,1.1-.55279,2-1.22842,2s-1.22842-.9-1.22842-2V141.54228a2.00588,2.00588,0,0,1,2-2h6.33409a8.61227,8.61227,0,0,1,5.707,1.68358,6.0782,6.0782,0,0,1,1.98413,4.908,7.3111,7.3111,0,0,1-.45654,2.6528,5.88872,5.88872,0,0,1-1.05584,1.85762,7.2174,7.2174,0,0,1-2.7422,1.80909l-.33.097c-.33532.08161-.11782.90209.48335,1.82328l4.03359,6.18087c.60117.9212.44179,1.6749-.35418,1.6749a3.64477,3.64477,0,0,1-2.534-1.67894l-3.74827-5.79044a4.11247,4.11247,0,0,0-3.08681-1.67894h-1.77739a2.00588,2.00588,0,0,0-2,2Z"/>
      <path class="cls-6" d="M180.72433,141.85366a2.00588,2.00588,0,0,0-2,2v4.91715a2.00588,2.00588,0,0,0,2,2h3.74691a8.78546,8.78546,0,0,0,2.843-.39762,3.29373,3.29373,0,0,0,1.6531-1.08526,4.597,4.597,0,0,0,.69816-1.38588,6.06078,6.06078,0,0,0,.18647-1.59794,6.176,6.176,0,0,0-.18647-1.597,4.61567,4.61567,0,0,0-.69816-1.36782,3.35152,3.35152,0,0,0-1.6531-1.09949,8.99885,8.99885,0,0,0-2.843-.38618Zm-2,18.3758c0,1.1-.55279,2-1.22842,2s-1.22842-.9-1.22842-2V141.54228a2.00588,2.00588,0,0,1,2-2h6.33409a8.61227,8.61227,0,0,1,5.707,1.68358,6.0782,6.0782,0,0,1,1.98413,4.908,7.3111,7.3111,0,0,1-.45654,2.6528,5.88872,5.88872,0,0,1-1.05584,1.85762,7.2174,7.2174,0,0,1-2.7422,1.80909l-.33.097c-.33532.08161-.11782.90209.48335,1.82328l4.03359,6.18087c.60117.9212.44179,1.6749-.35418,1.6749a3.64477,3.64477,0,0,1-2.534-1.67894l-3.74827-5.79044a4.11247,4.11247,0,0,0-3.08681-1.67894h-1.77739a2.00588,2.00588,0,0,0-2,2Z"/>
      <path class="cls-3" d="M211.71732,161.0738c0,.63562-.9,1.15566-2,1.15566H199.39a2.00588,2.00588,0,0,1-2-2V141.54228a2.00588,2.00588,0,0,1,2-2h10.32736c1.1,0,2,.52006,2,1.15569s-.9,1.15569-2,1.15569h-7.8705a2.00588,2.00588,0,0,0-2,2v3.82044a2.00588,2.00588,0,0,0,2,2h6.44375c1.1,0,2,.53588,2,1.19084s-.9,1.19084-2,1.19084h-6.44375a2.00588,2.00588,0,0,0-2,2v3.86236a2.00588,2.00588,0,0,0,2,2h7.8705C210.81732,159.91814,211.71732,160.43819,211.71732,161.0738Z"/>
      <path class="cls-6" d="M211.71732,161.0738c0,.63562-.9,1.15566-2,1.15566H199.39a2.00588,2.00588,0,0,1-2-2V141.54228a2.00588,2.00588,0,0,1,2-2h10.32736c1.1,0,2,.52006,2,1.15569s-.9,1.15569-2,1.15569h-7.8705a2.00588,2.00588,0,0,0-2,2v3.82044a2.00588,2.00588,0,0,0,2,2h6.44375c1.1,0,2,.53588,2,1.19084s-.9,1.19084-2,1.19084h-6.44375a2.00588,2.00588,0,0,0-2,2v3.86236a2.00588,2.00588,0,0,0,2,2h7.8705C210.81732,159.91814,211.71732,160.43819,211.71732,161.0738Z"/>
      <path class="cls-3" d="M216.04492,147.54464a14.13868,14.13868,0,0,1,.09934-3.94226,5.3254,5.3254,0,0,1,1.52543-2.51823q1.90047-1.85623,5.922-1.85379a12.71066,12.71066,0,0,1,3.798.68288,3.07233,3.07233,0,0,1,1.87944,2.68389v.512a10.89525,10.89525,0,0,0-5.45014-1.42674,7.33046,7.33046,0,0,0-4.16517.99969,3.31909,3.31909,0,0,0-1.44195,2.883,2.433,2.433,0,0,0,.94356,1.93943,5.88806,5.88806,0,0,0,2.31131,1.15568q1.3711.3681,3.00948.95494a26.96525,26.96525,0,0,1,3.00948,1.25554,5.81406,5.81406,0,0,1,2.31132,2.11063,6.21358,6.21358,0,0,1,.92835,3.46985,5.27043,5.27043,0,0,1-2.12491,4.43622,9.64649,9.64649,0,0,1-5.93716,1.61316,15.546,15.546,0,0,1-4.82056-.89086,3.12031,3.12031,0,0,1-1.87084-2.70709V158.246a11.43827,11.43827,0,0,0,6.5202,1.7987q5.79684,0,5.79261-3.59351a3.66331,3.66331,0,0,0-.93979-2.571,5.35079,5.35079,0,0,0-2.31132-1.51237q-1.37109-.48366-3.00948-1.01009-1.62789-.52936-3.01325-1.07006a5.44126,5.44126,0,0,1-2.31138-1.75777A3.43121,3.43121,0,0,1,216.04492,147.54464Z"/>
      <path class="cls-6" d="M216.04492,147.54464a14.13868,14.13868,0,0,1,.09934-3.94226,5.3254,5.3254,0,0,1,1.52543-2.51823q1.90047-1.85623,5.922-1.85379a12.71066,12.71066,0,0,1,3.798.68288,3.07233,3.07233,0,0,1,1.87944,2.68389v.512a10.89525,10.89525,0,0,0-5.45014-1.42674,7.33046,7.33046,0,0,0-4.16517.99969,3.31909,3.31909,0,0,0-1.44195,2.883,2.433,2.433,0,0,0,.94356,1.93943,5.88806,5.88806,0,0,0,2.31131,1.15568q1.3711.3681,3.00948.95494a26.96525,26.96525,0,0,1,3.00948,1.25554,5.81406,5.81406,0,0,1,2.31132,2.11063,6.21358,6.21358,0,0,1,.92835,3.46985,5.27043,5.27043,0,0,1-2.12491,4.43622,9.64649,9.64649,0,0,1-5.93716,1.61316,15.546,15.546,0,0,1-4.82056-.89086,3.12031,3.12031,0,0,1-1.87084-2.70709V158.246a11.43827,11.43827,0,0,0,6.5202,1.7987q5.79684,0,5.79261-3.59351a3.66331,3.66331,0,0,0-.93979-2.571,5.35079,5.35079,0,0,0-2.31132-1.51237q-1.37109-.48366-3.00948-1.01009-1.62789-.52936-3.01325-1.07006a5.44126,5.44126,0,0,1-2.31138-1.75777A3.43121,3.43121,0,0,1,216.04492,147.54464Z"/>
      <path class="cls-3" d="M250.08341,161.0738c0,.63562-.9,1.15566-2,1.15566H237.75983a2.00588,2.00588,0,0,1-2-2V141.54228a2.00588,2.00588,0,0,1,2-2h10.32358c1.1,0,2,.52006,2,1.15569s-.9,1.15569-2,1.15569h-7.87148a2.00588,2.00588,0,0,0-2,2v3.82044a2.00588,2.00588,0,0,0,2,2h6.44474c1.1,0,2,.53588,2,1.19084s-.9,1.19084-2,1.19084h-6.44474a2.00588,2.00588,0,0,0-2,2v3.86236a2.00588,2.00588,0,0,0,2,2h7.87148C249.18341,159.91814,250.08341,160.43819,250.08341,161.0738Z"/>
      <path class="cls-6" d="M250.08341,161.0738c0,.63562-.9,1.15566-2,1.15566H237.75983a2.00588,2.00588,0,0,1-2-2V141.54228a2.00588,2.00588,0,0,1,2-2h10.32358c1.1,0,2,.52006,2,1.15569s-.9,1.15569-2,1.15569h-7.87148a2.00588,2.00588,0,0,0-2,2v3.82044a2.00588,2.00588,0,0,0,2,2h6.44474c1.1,0,2,.53588,2,1.19084s-.9,1.19084-2,1.19084h-6.44474a2.00588,2.00588,0,0,0-2,2v3.86236a2.00588,2.00588,0,0,0,2,2h7.87148C249.18341,159.91814,250.08341,160.43819,250.08341,161.0738Z"/>
      <path class="cls-3" d="M263.76006,144.30757c-.39438-1.02687-1.03953-1.02679-1.43366.00017l-2.54647,6.63513a1.28377,1.28377,0,0,0,1.28339,1.86721h3.96221a1.28339,1.28339,0,0,0,1.28295-1.867Zm-7.61586,16.05526c-.395,1.02665-1.31584,1.86663-2.04642,1.86663s-.99493-.836-.58746-1.85772L261.07611,141.4c.40746-1.02175,1.29257-1.85773,1.96689-1.85773s1.55847.83637,1.96475,1.85859l7.53961,18.97c.40629,1.02222.14868,1.85858-.57246,1.85858s-1.6348-.83979-2.03037-1.86621L268.655,157.0171a3.14582,3.14582,0,0,0-2.71921-1.86621h-5.78652a3.14347,3.14347,0,0,0-2.7181,1.86664Z"/>
      <path class="cls-6" d="M263.76006,144.30757c-.39438-1.02687-1.03953-1.02679-1.43366.00017l-2.54647,6.63513a1.28377,1.28377,0,0,0,1.28339,1.86721h3.96221a1.28339,1.28339,0,0,0,1.28295-1.867Zm-7.61586,16.05526c-.395,1.02665-1.31584,1.86663-2.04642,1.86663s-.99493-.836-.58746-1.85772L261.07611,141.4c.40746-1.02175,1.29257-1.85773,1.96689-1.85773s1.55847.83637,1.96475,1.85859l7.53961,18.97c.40629,1.02222.14868,1.85858-.57246,1.85858s-1.6348-.83979-2.03037-1.86621L268.655,157.0171a3.14582,3.14582,0,0,0-2.71921-1.86621h-5.78652a3.14347,3.14347,0,0,0-2.7181,1.86664Z"/>
      <path class="cls-3" d="M281.47245,141.85366a2.00588,2.00588,0,0,0-2,2v4.91715a2.00588,2.00588,0,0,0,2,2h3.74784a8.745,8.745,0,0,0,2.83927-.39762,3.28962,3.28962,0,0,0,1.65693-1.08526,4.68885,4.68885,0,0,0,.6981-1.38588,6.06078,6.06078,0,0,0,.18647-1.59794,6.176,6.176,0,0,0-.18647-1.597,4.71018,4.71018,0,0,0-.6981-1.36782,3.347,3.347,0,0,0-1.65693-1.09949,8.95743,8.95743,0,0,0-2.83927-.38618Zm-2,18.3758c0,1.1-.55259,2-1.228,2s-1.228-.9-1.228-2V141.54228a2.00588,2.00588,0,0,1,2-2h6.33411a8.626,8.626,0,0,1,5.707,1.68358,6.07819,6.07819,0,0,1,1.98412,4.908,7.31089,7.31089,0,0,1-.45654,2.6528,5.88871,5.88871,0,0,1-1.05583,1.85762,6.07827,6.07827,0,0,1-1.41531,1.15563,6.24541,6.24541,0,0,1-1.32689.65346l-.33.097c-.33532.08161-.11782.90209.48335,1.82328l4.03359,6.18087c.60117.9212.44179,1.6749-.35418,1.6749a3.64477,3.64477,0,0,1-2.534-1.67894l-3.74827-5.79044a4.11247,4.11247,0,0,0-3.08681-1.67894h-1.77832a2.00588,2.00588,0,0,0-2,2Z"/>
      <path class="cls-6" d="M281.47245,141.85366a2.00588,2.00588,0,0,0-2,2v4.91715a2.00588,2.00588,0,0,0,2,2h3.74784a8.745,8.745,0,0,0,2.83927-.39762,3.28962,3.28962,0,0,0,1.65693-1.08526,4.68885,4.68885,0,0,0,.6981-1.38588,6.06078,6.06078,0,0,0,.18647-1.59794,6.176,6.176,0,0,0-.18647-1.597,4.71018,4.71018,0,0,0-.6981-1.36782,3.347,3.347,0,0,0-1.65693-1.09949,8.95743,8.95743,0,0,0-2.83927-.38618Zm-2,18.3758c0,1.1-.55259,2-1.228,2s-1.228-.9-1.228-2V141.54228a2.00588,2.00588,0,0,1,2-2h6.33411a8.626,8.626,0,0,1,5.707,1.68358,6.07819,6.07819,0,0,1,1.98412,4.908,7.31089,7.31089,0,0,1-.45654,2.6528,5.88871,5.88871,0,0,1-1.05583,1.85762,6.07827,6.07827,0,0,1-1.41531,1.15563,6.24541,6.24541,0,0,1-1.32689.65346l-.33.097c-.33532.08161-.11782.90209.48335,1.82328l4.03359,6.18087c.60117.9212.44179,1.6749-.35418,1.6749a3.64477,3.64477,0,0,1-2.534-1.67894l-3.74827-5.79044a4.11247,4.11247,0,0,0-3.08681-1.67894h-1.77832a2.00588,2.00588,0,0,0-2,2Z"/>
      <path class="cls-3" d="M309.76107,162.31667a10.52967,10.52967,0,0,1-3.86792-.50838s-8.63778-3.18662-8.63778-10.93763q0-11.64228,10.51417-11.6403a20.41339,20.41339,0,0,1,4.9895.75842,2.847,2.847,0,0,1,1.9178,2.56748v.35219a16.9897,16.9897,0,0,0-6.63526-1.35255q-4.32021,0-6.3205,2.23718-2.01166,2.23992-2.00978,7.07758,0,4.82093,2.00978,7.07857,1.99461,2.24,6.3205,2.24a18.61994,18.61994,0,0,0,4.72358-.742,1.3959,1.3959,0,0,1,1.91168,1.41224v.34081A20.94041,20.94041,0,0,1,309.76107,162.31667Z"/>
      <path class="cls-6" d="M309.76107,162.31667a10.52967,10.52967,0,0,1-3.86792-.50838s-8.63778-3.18662-8.63778-10.93763q0-11.64228,10.51417-11.6403a20.41339,20.41339,0,0,1,4.9895.75842,2.847,2.847,0,0,1,1.9178,2.56748v.35219a16.9897,16.9897,0,0,0-6.63526-1.35255q-4.32021,0-6.3205,2.23718-2.01166,2.23992-2.00978,7.07758,0,4.82093,2.00978,7.07857,1.99461,2.24,6.3205,2.24a18.61994,18.61994,0,0,0,4.72358-.742,1.3959,1.3959,0,0,1,1.91168,1.41224v.34081A20.94041,20.94041,0,0,1,309.76107,162.31667Z"/>
      <path class="cls-3" d="M321.95518,160.22946c0,1.1-.55259,2-1.228,2s-1.228-.9-1.228-2V141.54228c0-1.1.55258-2,1.228-2s1.228.9,1.228,2V147.715a2.00588,2.00588,0,0,0,2,2h8.06834a2.00588,2.00588,0,0,0,2-2v-6.17269c0-1.1.55258-2,1.228-2s1.228.9,1.228,2v18.68718c0,1.1-.55259,2-1.228,2s-1.228-.9-1.228-2v-6.17368a2.00588,2.00588,0,0,0-2-2h-8.06834a2.00588,2.00588,0,0,0-2,2Z"/>
      <path class="cls-6" d="M321.95518,160.22946c0,1.1-.55259,2-1.228,2s-1.228-.9-1.228-2V141.54228c0-1.1.55258-2,1.228-2s1.228.9,1.228,2V147.715a2.00588,2.00588,0,0,0,2,2h8.06834a2.00588,2.00588,0,0,0,2-2v-6.17269c0-1.1.55258-2,1.228-2s1.228.9,1.228,2v18.68718c0,1.1-.55259,2-1.228,2s-1.228-.9-1.228-2v-6.17368a2.00588,2.00588,0,0,0-2-2h-8.06834a2.00588,2.00588,0,0,0-2,2Z"/>
      <path class="cls-3" d="M367.58507,162.31667a10.52994,10.52994,0,0,1-3.86792-.50838s-8.63772-3.18662-8.63772-10.93763q0-11.64228,10.51411-11.6403a20.41353,20.41353,0,0,1,4.98956.75842,2.847,2.847,0,0,1,1.9178,2.56748v.35219a16.99,16.99,0,0,0-6.63532-1.35255q-4.32587,0-6.32044,2.23718-2.01175,2.23992-2.01361,7.07758,0,4.82093,2.01361,7.07857,1.99452,2.24,6.32044,2.24a18.62007,18.62007,0,0,0,4.72364-.742,1.3959,1.3959,0,0,1,1.91168,1.41224v.34081A20.94123,20.94123,0,0,1,367.58507,162.31667Z"/>
      <path class="cls-6" d="M367.58507,162.31667a10.52994,10.52994,0,0,1-3.86792-.50838s-8.63772-3.18662-8.63772-10.93763q0-11.64228,10.51411-11.6403a20.41353,20.41353,0,0,1,4.98956.75842,2.847,2.847,0,0,1,1.9178,2.56748v.35219a16.99,16.99,0,0,0-6.63532-1.35255q-4.32587,0-6.32044,2.23718-2.01175,2.23992-2.01361,7.07758,0,4.82093,2.01361,7.07857,1.99452,2.24,6.32044,2.24a18.62007,18.62007,0,0,0,4.72364-.742,1.3959,1.3959,0,0,1,1.91168,1.41224v.34081A20.94123,20.94123,0,0,1,367.58507,162.31667Z"/>
      <path class="cls-3" d="M391.64688,161.0738c0,.63562-.9,1.15566-2,1.15566H379.32331a2.00588,2.00588,0,0,1-2-2V141.54228a2.00588,2.00588,0,0,1,2-2h10.32357c1.1,0,2,.52006,2,1.15569s-.9,1.15569-2,1.15569h-7.8677a2.00588,2.00588,0,0,0-2,2v3.82044a2.00588,2.00588,0,0,0,2,2h6.441c1.1,0,2,.53588,2,1.19084s-.9,1.19084-2,1.19084h-6.441a2.00588,2.00588,0,0,0-2,2v3.86236a2.00588,2.00588,0,0,0,2,2h7.8677C390.74688,159.91814,391.64688,160.43819,391.64688,161.0738Z"/>
      <path class="cls-6" d="M391.64688,161.0738c0,.63562-.9,1.15566-2,1.15566H379.32331a2.00588,2.00588,0,0,1-2-2V141.54228a2.00588,2.00588,0,0,1,2-2h10.32357c1.1,0,2,.52006,2,1.15569s-.9,1.15569-2,1.15569h-7.8677a2.00588,2.00588,0,0,0-2,2v3.82044a2.00588,2.00588,0,0,0,2,2h6.441c1.1,0,2,.53588,2,1.19084s-.9,1.19084-2,1.19084h-6.441a2.00588,2.00588,0,0,0-2,2v3.86236a2.00588,2.00588,0,0,0,2,2h7.8677C390.74688,159.91814,391.64688,160.43819,391.64688,161.0738Z"/>
      <path class="cls-3" d="M399.02977,160.22946c0,1.1-.55172,2-1.226,2s-1.226-.9-1.226-2V141.54228c0-1.1.62856-2,1.39679-2a3.82318,3.82318,0,0,1,2.55256,1.63224l11.22732,15.85584c.63567.89774,1.15577.73224,1.15577-.36776V141.54228c0-1.1.54937-2,1.22082-2s1.22083.9,1.22083,2v18.68718c0,1.1-.61957,2-1.37682,2a3.81643,3.81643,0,0,1-2.53426-1.631l-11.25346-15.85822c-.6366-.89707-1.15745-.73105-1.15745.36895Z"/>
      <path class="cls-6" d="M399.02977,160.22946c0,1.1-.55172,2-1.226,2s-1.226-.9-1.226-2V141.54228c0-1.1.62856-2,1.39679-2a3.82318,3.82318,0,0,1,2.55256,1.63224l11.22732,15.85584c.63567.89774,1.15577.73224,1.15577-.36776V141.54228c0-1.1.54937-2,1.22082-2s1.22083.9,1.22083,2v18.68718c0,1.1-.61957,2-1.37682,2a3.81643,3.81643,0,0,1-2.53426-1.631l-11.25346-15.85822c-.6366-.89707-1.15745-.73105-1.15745.36895Z"/>
      <path class="cls-3" d="M426.818,143.924a2.00588,2.00588,0,0,0-2-2h-4.0183c-1.1,0-2-.53589-2-1.19087s.9-1.19087,2-1.19087h14.45821c1.1,0,2,.53589,2,1.19087s-.9,1.19087-2,1.19087h-3.98781a2.00588,2.00588,0,0,0-2,2v16.30544c0,1.1-.55173,2-1.22605,2s-1.226-.9-1.226-2Z"/>
      <path class="cls-6" d="M426.818,143.924a2.00588,2.00588,0,0,0-2-2h-4.0183c-1.1,0-2-.53589-2-1.19087s.9-1.19087,2-1.19087h14.45821c1.1,0,2,.53589,2,1.19087s-.9,1.19087-2,1.19087h-3.98781a2.00588,2.00588,0,0,0-2,2v16.30544c0,1.1-.55173,2-1.22605,2s-1.226-.9-1.226-2Z"/>
      <path class="cls-3" d="M445.10952,141.85366a2.00588,2.00588,0,0,0-2,2v4.91715a2.00588,2.00588,0,0,0,2,2h3.75168a8.77676,8.77676,0,0,0,2.83921-.39762,3.28153,3.28153,0,0,0,1.65315-1.08526,4.61536,4.61536,0,0,0,.70194-1.38588,6.06349,6.06349,0,0,0,.18641-1.59794,6.17876,6.17876,0,0,0-.18641-1.597,4.63513,4.63513,0,0,0-.70194-1.36782,3.33886,3.33886,0,0,0-1.65315-1.09949,8.98987,8.98987,0,0,0-2.83921-.38618Zm-2,18.3758c0,1.1-.55172,2-1.226,2s-1.226-.9-1.226-2V141.54228a2.00588,2.00588,0,0,1,2-2h6.33028a8.6123,8.6123,0,0,1,5.707,1.68358,6.07822,6.07822,0,0,1,1.98412,4.908,7.31089,7.31089,0,0,1-.45654,2.6528,5.81706,5.81706,0,0,1-1.05583,1.85762,5.98048,5.98048,0,0,1-1.41148,1.15563,6.247,6.247,0,0,1-1.32689.65346l-.33387.097c-.33533.08161-.11762.90195.48381,1.823l4.03644,6.18148c.60142.921.4414,1.67459-.35561,1.67459a3.64449,3.64449,0,0,1-2.53541-1.67925l-3.74548-5.78981a4.11087,4.11087,0,0,0-3.08632-1.67926h-1.7821a2.00588,2.00588,0,0,0-2,2Z"/>
      <path class="cls-6" d="M445.10952,141.85366a2.00588,2.00588,0,0,0-2,2v4.91715a2.00588,2.00588,0,0,0,2,2h3.75168a8.77676,8.77676,0,0,0,2.83921-.39762,3.28153,3.28153,0,0,0,1.65315-1.08526,4.61536,4.61536,0,0,0,.70194-1.38588,6.06349,6.06349,0,0,0,.18641-1.59794,6.17876,6.17876,0,0,0-.18641-1.597,4.63513,4.63513,0,0,0-.70194-1.36782,3.33886,3.33886,0,0,0-1.65315-1.09949,8.98987,8.98987,0,0,0-2.83921-.38618Zm-2,18.3758c0,1.1-.55172,2-1.226,2s-1.226-.9-1.226-2V141.54228a2.00588,2.00588,0,0,1,2-2h6.33028a8.6123,8.6123,0,0,1,5.707,1.68358,6.07822,6.07822,0,0,1,1.98412,4.908,7.31089,7.31089,0,0,1-.45654,2.6528,5.81706,5.81706,0,0,1-1.05583,1.85762,5.98048,5.98048,0,0,1-1.41148,1.15563,6.247,6.247,0,0,1-1.32689.65346l-.33387.097c-.33533.08161-.11762.90195.48381,1.823l4.03644,6.18148c.60142.921.4414,1.67459-.35561,1.67459a3.64449,3.64449,0,0,1-2.53541-1.67925l-3.74548-5.78981a4.11087,4.11087,0,0,0-3.08632-1.67926h-1.7821a2.00588,2.00588,0,0,0-2,2Z"/>
      <path class="cls-3" d="M476.10344,161.0738c0,.63562-.9,1.15566-2,1.15566H463.77986a2.00588,2.00588,0,0,1-2-2V141.54228a2.00588,2.00588,0,0,1,2-2h10.32358c1.1,0,2,.52006,2,1.15569s-.9,1.15569-2,1.15569H466.232a2.00588,2.00588,0,0,0-2,2v3.82044a2.00588,2.00588,0,0,0,2,2h6.44474c1.1,0,2,.53588,2,1.19084s-.9,1.19084-2,1.19084H466.232a2.00588,2.00588,0,0,0-2,2v3.86236a2.00588,2.00588,0,0,0,2,2h7.87148C475.20344,159.91814,476.10344,160.43819,476.10344,161.0738Z"/>
      <path class="cls-6" d="M476.10344,161.0738c0,.63562-.9,1.15566-2,1.15566H463.77986a2.00588,2.00588,0,0,1-2-2V141.54228a2.00588,2.00588,0,0,1,2-2h10.32358c1.1,0,2,.52006,2,1.15569s-.9,1.15569-2,1.15569H466.232a2.00588,2.00588,0,0,0-2,2v3.82044a2.00588,2.00588,0,0,0,2,2h6.44474c1.1,0,2,.53588,2,1.19084s-.9,1.19084-2,1.19084H466.232a2.00588,2.00588,0,0,0-2,2v3.86236a2.00588,2.00588,0,0,0,2,2h7.87148C475.20344,159.91814,476.10344,160.43819,476.10344,161.0738Z"/>
      <path class="cls-4" d="M330.76449,8.848A8.84551,8.84551,0,1,1,321.9165,0a8.8473,8.8473,0,0,1,8.848,8.848"/>
    </g>
  </g>
</svg>
