<svg xmlns="http://www.w3.org/2000/svg" viewBox="0 0 212.86872 211.22279">
  <defs>
    <style>
      .cls-1 {
        fill: #182966;
      }

      .cls-2 {
        fill: #41d6ff;
      }
    </style>
  </defs>
  <g id="图层_2" data-name="图层 2">
    <g id="图层_1-2" data-name="图层 1">
      <g id="shape_76EFCIyxB9" data-name="shape 76EFCIyxB9">
        <g>
          <path class="cls-1" d="M212.86872,59.115A59.12106,59.12106,0,0,0,153.75375,0h-.82295a63.12025,63.12025,0,0,0-11.52125,1.09726V24.68838a35.61711,35.61711,0,0,1,11.52125-1.92021h.82295a36.34678,36.34678,0,1,1,0,72.69356H141.40956V118.2299h12.34419A59.29762,59.29762,0,0,0,212.86872,59.115ZM116.584,153.20511V136.74619h0V12.6185A59.02736,59.02736,0,0,0,93.81585,59.115v94.09016a35.18018,35.18018,0,0,1-35.11236,35.11238h-.82295a35.04386,35.04386,0,0,1,0-70.08758H68.99031V95.46173H57.88054a57.88053,57.88053,0,1,0,0,115.76106h.82295A58.09728,58.09728,0,0,0,116.584,153.20511Z"/>
          <circle class="cls-2" cx="60.62369" cy="151.97068" r="18.92776"/>
          <circle class="cls-2" cx="148.67892" cy="147.99312" r="16.04744"/>
          <circle class="cls-2" cx="63.77832" cy="64.05263" r="11.79556"/>
          <circle class="cls-2" cx="153.89092" cy="59.11495" r="18.92776"/>
        </g>
      </g>
    </g>
  </g>
</svg>
